<svg width="200" height="121" viewBox="0 0 200 121" fill="none" xmlns="http://www.w3.org/2000/svg">
<g clip-path="url(#clip0_219_3175)">
<mask id="mask0_219_3175" style="mask-type:luminance" maskUnits="userSpaceOnUse" x="0" y="0" width="200" height="121">
<path d="M199.111 0.375H0V120.375H199.111V0.375Z" fill="white"/>
</mask>
<g mask="url(#mask0_219_3175)">
<path d="M101.588 8.26073L102.266 12.9464H111.634L108.925 0.375H96.3963L88.7208 12.9464H98.9924L101.588 8.26073Z" fill="#121214"/>
<path d="M111.744 33.1749L108.245 16.375H98.8768L99.5541 21.0607H92.8943L95.6035 16.375H85.3319L75.1731 33.1749H86.2348L88.6052 28.8321H100.796L101.473 33.1749H111.744Z" fill="#121214"/>
<path d="M140.866 31.1179C144.14 29.7464 146.623 27.6894 148.316 25.175C150.009 22.6607 150.912 19.8036 150.912 16.375H140.189C140.189 16.7179 140.302 16.9464 140.302 17.2893C140.302 19.6893 139.512 21.5179 137.819 22.8893C136.125 24.2607 133.981 24.9464 131.272 24.9464H127.208L128.901 16.375H118.517L115.131 33.1749H129.353C133.755 33.1749 137.593 32.4894 140.866 31.1179Z" fill="#121214"/>
<path d="M133.194 8.6036H137.37C139.515 8.6036 141.095 9.06075 142.111 9.86075C142.901 10.5465 143.465 11.575 143.578 12.9465H154.301C154.301 12.9465 154.301 12.9465 154.301 12.8322C154.301 8.71788 152.947 5.63218 150.351 3.46075C147.755 1.4036 143.917 0.260742 138.725 0.260742H124.502L121.906 12.9465H132.178L133.194 8.6036Z" fill="#121214"/>
<path d="M169.876 22.6607L175.068 16.375H157.008L159.491 22.2036L157.234 33.1749H167.731L169.876 22.6607Z" fill="#121214"/>
<path d="M178.456 12.9464L189.066 0.375H177.778L169.539 10.775L165.588 0.375H154.752L160.396 12.9464H178.456Z" fill="#121214"/>
<path d="M29.3474 7.68927H33.8625C35.3299 7.68927 36.4585 7.91785 37.023 8.26073C37.7002 8.60357 37.9259 9.28928 37.9259 10.2036C37.9259 11.575 37.2486 12.4893 35.8941 12.9464H47.2946C47.6331 11.9179 47.859 10.775 47.859 9.51785C47.859 6.66073 46.843 4.375 44.6985 2.775C42.5538 1.175 39.7318 0.375 36.12 0.375H20.7689L19.3016 7.68927H29.3474Z" fill="#121214"/>
<path d="M81.3834 0.375H55.1965L53.6163 7.80357H79.916L81.3834 0.375Z" fill="#121214"/>
<path d="M66.7101 14.0893L67.0489 12.4893H52.9395L52.6007 14.0893L51.4721 19.8036H65.5815L66.7101 14.0893Z" fill="#121214"/>
<path d="M73.9318 25.7471H47.2936L45.8262 33.1756H72.4644L73.9318 25.7471Z" fill="#121214"/>
<path d="M59.7104 67.2324H45.0368L46.7299 58.8896H36.2326L32.8462 75.6896H58.0173L59.7104 67.2324Z" fill="#121214"/>
<path d="M39.6183 55.4609H50.1156L52.599 42.8896H42.2143L39.6183 55.4609Z" fill="#121214"/>
<path d="M74.8355 71.3466H86.9131L87.7032 75.6896H97.9748L94.3629 58.8896H85.1071L85.7844 63.5752H79.1249L81.721 58.8896H71.5622L61.4034 75.6896H72.4652L74.8355 71.3466Z" fill="#121214"/>
<path d="M82.6237 42.8896L74.9481 55.4609H85.1069L87.7029 50.7752L88.4931 55.4609H97.7489L95.1528 42.8896H82.6237Z" fill="#121214"/>
<path d="M105.991 64.7181L103.733 75.6896H114.23L116.375 65.1751L121.567 58.8896H103.395L105.991 64.7181Z" fill="#121214"/>
<path d="M124.277 42.8896L116.037 53.2896L112.086 42.8896H101.25L106.781 55.4609H124.954L135.564 42.8896H124.277Z" fill="#121214"/>
<path d="M21.7863 49.7468C23.2537 49.7468 24.3825 49.9756 24.9469 50.3183C25.6242 50.6613 25.8498 51.2326 25.8498 52.1468C25.8498 54.3183 24.2696 55.3468 20.9962 55.4613H35.2185C35.7829 54.2041 36.0086 52.7183 36.0086 51.1183C36.0086 48.1468 34.9928 45.8613 33.0738 44.3756C31.0422 42.8898 28.1074 42.0898 24.1567 42.0898H9.59587L8.01562 49.7468H18.0615H21.7863Z" fill="#121214"/>
<path d="M31.9435 58.8896H17.7213C17.6085 58.8896 17.3827 58.8896 17.2698 58.8896H14.7866H13.6578H3.49911L0 75.6896H10.0459L11.9647 66.6609H16.3668C21.4462 66.6609 25.3968 65.6324 28.3316 63.4609C30.0247 62.2039 31.1533 60.7181 31.9435 58.8896Z" fill="#121214"/>
<path d="M23.0249 23.575H27.9914L31.8292 33.2894H42.8909L37.6985 21.975C39.8432 21.0607 41.5363 19.8036 42.6652 18.2036C43.1166 17.6322 43.4553 16.9464 43.681 16.2607H30.4746C30.1361 16.2607 29.6845 16.2607 29.346 16.2607H25.9598H24.4923H14.6722L11.2859 33.1751H20.9932L23.0249 23.575Z" fill="#121214"/>
<path d="M165.473 43.0039H139.174L137.706 50.4324H163.893L165.473 43.0039Z" fill="#121214"/>
<path d="M135.45 62.8894H149.56L150.914 55.5752H136.805L135.45 62.8894Z" fill="#121214"/>
<path d="M129.919 75.8035H156.558L158.025 68.375H131.386L129.919 75.8035Z" fill="#121214"/>
<path d="M195.952 45.2897C193.807 43.6897 190.985 42.8896 187.373 42.8896H172.022L170.555 50.2039H180.601H185.116C186.583 50.2039 187.712 50.4324 188.276 50.7752C188.953 51.1182 189.179 51.8039 189.179 52.7182C189.179 54.0897 188.502 55.0039 187.147 55.4609H198.548C198.886 54.4324 199.112 53.2897 199.112 52.0324C199.112 49.1752 197.983 46.8897 195.952 45.2897Z" fill="#121214"/>
<path d="M193.919 60.6039C194.37 60.0324 194.709 59.3466 194.935 58.6611H181.728C181.39 58.6611 180.938 58.6611 180.6 58.6611H177.214H175.746H165.926L162.54 75.6896H172.247L174.279 65.9754H179.245L183.083 75.6896H194.145L188.953 64.3754C191.097 63.4611 192.79 62.2039 193.919 60.6039Z" fill="#121214"/>
<path d="M71.6743 95.1182H97.8612L99.4415 87.5752H73.1417L71.6743 95.1182Z" fill="#121214"/>
<path d="M84.882 100.146H70.7726L69.3052 107.461H83.4146L84.882 100.146Z" fill="#121214"/>
<path d="M63.8871 120.375H90.4126L91.9928 112.946H65.3546L63.8871 120.375Z" fill="#121214"/>
<path d="M27.879 100.147H44.6973L41.7627 87.5752H30.4751L27.879 100.147Z" fill="#121214"/>
<path d="M68.8529 87.5752H56.8882L48.8738 100.147H66.3696L68.8529 87.5752Z" fill="#121214"/>
<path d="M42.4398 108.489L41.3111 103.575H24.4927L21.1064 120.375H30.4751L33.4099 106.204L36.4573 120.375H44.02L52.9371 105.861L50.0025 120.375H59.5968L62.983 103.575H45.4874L42.4398 108.489Z" fill="#121214"/>
</g>
</g>
<defs>
<clipPath id="clip0_219_3175">
<rect width="200" height="120" fill="white" transform="translate(0 0.375)"/>
</clipPath>
</defs>
</svg>
