<svg width="200" height="121" viewBox="0 0 200 121" fill="none" xmlns="http://www.w3.org/2000/svg">
<g clip-path="url(#clip0_394_560)">
<mask id="mask0_394_560" style="mask-type:luminance" maskUnits="userSpaceOnUse" x="0" y="0" width="200" height="121">
<path d="M199.111 0.246094H0V120.246H199.111V0.246094Z" fill="white"/>
</mask>
<g mask="url(#mask0_394_560)">
<path d="M101.588 8.13182L102.266 12.8175H111.634L108.925 0.246094H96.3963L88.7207 12.8175H98.9923L101.588 8.13182Z" fill="#121214"/>
<path d="M111.744 33.046L108.245 16.2461H98.8766L99.5538 20.9318H92.8941L95.6032 16.2461H85.3316L75.1729 33.046H86.2346L88.605 28.7032H100.795L101.473 33.046H111.744Z" fill="#121214"/>
<path d="M140.866 30.989C144.14 29.6175 146.623 27.5605 148.316 25.0461C150.009 22.5318 150.912 19.6747 150.912 16.2461H140.189C140.189 16.5889 140.302 16.8175 140.302 17.1604C140.302 19.5604 139.512 21.3889 137.819 22.7604C136.126 24.1318 133.981 24.8175 131.272 24.8175H127.209L128.902 16.2461H118.517L115.131 33.046H129.353C133.755 33.046 137.593 32.3605 140.866 30.989Z" fill="#121214"/>
<path d="M133.194 8.4747H137.37C139.515 8.4747 141.095 8.93185 142.111 9.73185C142.901 10.4175 143.466 11.4461 143.578 12.8175H154.302C154.302 12.8175 154.302 12.8175 154.302 12.7033C154.302 8.58897 152.947 5.50327 150.351 3.33185C147.755 1.27469 143.917 0.131836 138.725 0.131836H124.503L121.906 12.8175H132.178L133.194 8.4747Z" fill="#121214"/>
<path d="M169.876 22.5318L175.068 16.2461H157.008L159.491 22.0747L157.234 33.046H167.731L169.876 22.5318Z" fill="#121214"/>
<path d="M178.456 12.8175L189.066 0.246094H177.779L169.539 10.6461L165.588 0.246094H154.752L160.396 12.8175H178.456Z" fill="#121214"/>
<path d="M29.3473 7.56037H33.8624C35.3298 7.56037 36.4585 7.78894 37.0229 8.13182C37.7002 8.47467 37.9259 9.16037 37.9259 10.0747C37.9259 11.4461 37.2486 12.3604 35.894 12.8175H47.2945C47.633 11.7889 47.8589 10.6461 47.8589 9.38894C47.8589 6.53182 46.8429 4.24609 44.6985 2.64609C42.5538 1.04609 39.7318 0.246094 36.1199 0.246094H20.7689L19.3015 7.56037H29.3473Z" fill="#121214"/>
<path d="M81.3834 0.246094H55.1965L53.6162 7.67467H79.916L81.3834 0.246094Z" fill="#121214"/>
<path d="M66.7102 13.9604L67.049 12.3604H52.9396L52.6008 13.9604L51.4722 19.6747H65.5815L66.7102 13.9604Z" fill="#121214"/>
<path d="M73.9318 25.6182H47.2936L45.8262 33.0467H72.4644L73.9318 25.6182Z" fill="#121214"/>
<path d="M59.7104 67.1035H45.0368L46.7299 58.7607H36.2326L32.8462 75.5607H58.0173L59.7104 67.1035Z" fill="#121214"/>
<path d="M39.6182 55.332H50.1154L52.5989 42.7607H42.2142L39.6182 55.332Z" fill="#121214"/>
<path d="M74.8354 71.2177H86.9129L87.7031 75.5607H97.9747L94.3628 58.7607H85.107L85.7843 63.4462H79.1248L81.7209 58.7607H71.5621L61.4033 75.5607H72.465L74.8354 71.2177Z" fill="#121214"/>
<path d="M82.6238 42.7607L74.9482 55.332H85.107L87.7031 50.6462L88.4932 55.332H97.749L95.1529 42.7607H82.6238Z" fill="#121214"/>
<path d="M105.991 64.5892L103.733 75.5607H114.23L116.375 65.0462L121.567 58.7607H103.395L105.991 64.5892Z" fill="#121214"/>
<path d="M124.277 42.7607L116.037 53.1607L112.086 42.7607H101.25L106.781 55.332H124.954L135.564 42.7607H124.277Z" fill="#121214"/>
<path d="M21.7863 49.6179C23.2537 49.6179 24.3825 49.8467 24.9469 50.1894C25.6242 50.5324 25.8498 51.1037 25.8498 52.0179C25.8498 54.1894 24.2696 55.2179 20.9962 55.3324H35.2185C35.7829 54.0752 36.0086 52.5894 36.0086 50.9894C36.0086 48.0179 34.9928 45.7324 33.0738 44.2467C31.0422 42.7609 28.1074 41.9609 24.1567 41.9609H9.59587L8.01562 49.6179H18.0615H21.7863Z" fill="#121214"/>
<path d="M31.9435 58.7607H17.7213C17.6085 58.7607 17.3827 58.7607 17.2698 58.7607H14.7866H13.6578H3.49911L0 75.5607H10.0459L11.9647 66.532H16.3668C21.4462 66.532 25.3968 65.5035 28.3316 63.332C30.0247 62.075 31.1533 60.5892 31.9435 58.7607Z" fill="#121214"/>
<path d="M23.0249 23.4461H27.9913L31.8291 33.1605H42.8908L37.6985 21.8461C39.8432 20.9318 41.5363 19.6747 42.6651 18.0747C43.1165 17.5033 43.4553 16.8175 43.681 16.1318H30.4745C30.136 16.1318 29.6844 16.1318 29.3459 16.1318H25.9597H24.4922H14.6721L11.2859 33.0462H20.9931L23.0249 23.4461Z" fill="#121214"/>
<path d="M165.473 42.875H139.173L137.706 50.3035H163.893L165.473 42.875Z" fill="#121214"/>
<path d="M135.45 62.7605H149.56L150.914 55.4463H136.805L135.45 62.7605Z" fill="#121214"/>
<path d="M129.919 75.6746H156.557L158.025 68.2461H131.386L129.919 75.6746Z" fill="#121214"/>
<path d="M195.951 45.1607C193.807 43.5607 190.985 42.7607 187.373 42.7607H172.022L170.555 50.075H180.601H185.115C186.583 50.075 187.712 50.3035 188.276 50.6462C188.953 50.9892 189.179 51.675 189.179 52.5892C189.179 53.9607 188.502 54.875 187.147 55.332H198.548C198.886 54.3035 199.112 53.1607 199.112 51.9035C199.112 49.0462 197.983 46.7607 195.951 45.1607Z" fill="#121214"/>
<path d="M193.919 60.475C194.37 59.9035 194.709 59.2177 194.935 58.5322H181.728C181.39 58.5322 180.938 58.5322 180.6 58.5322H177.214H175.746H165.926L162.54 75.5607H172.247L174.279 65.8465H179.245L183.083 75.5607H194.145L188.953 64.2465C191.097 63.3322 192.79 62.075 193.919 60.475Z" fill="#121214"/>
<path d="M71.6743 94.9893H97.8612L99.4415 87.4463H73.1417L71.6743 94.9893Z" fill="#121214"/>
<path d="M84.882 100.018H70.7726L69.3052 107.332H83.4146L84.882 100.018Z" fill="#121214"/>
<path d="M63.8872 120.246H90.4126L91.9929 112.817H65.3546L63.8872 120.246Z" fill="#121214"/>
<path d="M27.8789 100.018H44.6972L41.7626 87.4463H30.475L27.8789 100.018Z" fill="#121214"/>
<path d="M68.8528 87.4463H56.8881L48.8738 100.018H66.3696L68.8528 87.4463Z" fill="#121214"/>
<path d="M42.4398 108.361L41.3111 103.446H24.4927L21.1064 120.246H30.4751L33.4099 106.075L36.4573 120.246H44.02L52.9371 105.732L50.0025 120.246H59.5968L62.983 103.446H45.4874L42.4398 108.361Z" fill="#121214"/>
</g>
</g>
<defs>
<clipPath id="clip0_394_560">
<rect width="200" height="120" fill="white" transform="translate(0 0.123047)"/>
</clipPath>
</defs>
</svg>
