<svg width="300" height="133" viewBox="0 0 300 133" fill="none" xmlns="http://www.w3.org/2000/svg">
<path d="M31.5812 23.793H45.589C49.2515 23.793 52.178 24.8035 54.3733 26.8245C56.5671 28.8455 57.6655 31.5479 57.6655 34.9318C57.6655 38.3156 56.564 41.0227 54.3593 43.053C52.1562 45.0818 49.2327 46.0954 45.5874 46.0954H36.1046V60.0127H31.5796V23.793H31.5812ZM36.1062 27.9359V41.954H45.1827C47.5733 41.954 49.4796 41.3192 50.903 40.0479C52.328 38.7766 53.039 37.0723 53.039 34.9333C53.039 32.7943 52.3358 31.0947 50.928 29.8311C49.5218 28.5676 47.6233 27.9374 45.2327 27.9374H36.1046L36.1062 27.9359Z" fill="#6966FF"/>
<path d="M63.3875 60.0127V23.793H67.9125V55.8698H84.5406V60.0127H63.3875Z" fill="#6966FF"/>
<path d="M117.209 23.7432H122.523L133.253 41.7506L144.134 23.7432H149.245L135.49 46.6261V60.0125H130.965V46.6261L117.211 23.7432H117.209Z" fill="#6966FF"/>
<path d="M154.278 23.793H177.516V27.9359H158.803V39.5295H174.389V43.6708H158.803V55.8698H178.177V60.0127H154.278V23.793Z" fill="#6966FF"/>
<path d="M184.303 23.793H198.261C201.922 23.793 204.858 24.8035 207.07 26.8245C209.283 28.8455 210.387 31.5479 210.387 34.9318C210.387 37.4588 209.684 39.6381 208.278 41.4744C206.87 43.3107 204.989 44.5556 202.634 45.2122L210.82 60.0127H205.709L198.159 46.0954H188.828V60.0127H184.303V23.793ZM188.828 27.9359V41.954H197.905C200.295 41.954 202.201 41.3145 203.625 40.0339C205.05 38.7549 205.761 37.0537 205.761 34.9318C205.761 32.8099 205.053 31.1148 203.637 29.8436C202.222 28.5723 200.328 27.9359 197.955 27.9359H188.826H188.828Z" fill="#6966FF"/>
<path d="M119.264 59.7038L106.345 51.772C105.698 51.3746 104.903 51.3746 104.256 51.772L91.3373 59.7038C89.5467 60.8028 87.503 58.7632 88.428 56.8012L103.436 24.9665C104.205 23.3367 106.397 23.3367 107.165 24.9665L122.173 56.8012C123.098 58.7632 121.055 60.8028 119.264 59.7038Z" fill="#6966FF"/>
<path d="M178.147 103.503C178.147 103.503 178.142 103.511 178.142 103.516C178.142 103.512 178.145 103.508 178.145 103.503H178.148H178.147Z" fill="#6966FF"/>
<path d="M171.48 72.2148H194.717V76.3577H176.005V87.9513H191.591V92.0927H176.005V104.292H195.378V108.435H171.48V72.2148Z" fill="#6966FF"/>
<path d="M250.119 72.145C240.013 72.145 231.819 80.2834 231.819 90.3247C231.819 100.366 240.011 108.504 250.119 108.504C260.227 108.504 268.419 100.366 268.419 90.3247C268.419 80.2834 260.227 72.145 250.119 72.145Z" fill="#6966FF"/>
<path d="M201.48 72.1655H215.438C219.098 72.1655 222.034 73.176 224.247 75.197C226.459 77.218 227.564 79.9205 227.564 83.3043C227.564 85.8314 226.861 88.0107 225.455 89.847C224.047 91.6833 222.166 92.9281 219.811 93.5847L227.997 108.385H222.886L215.336 94.468H206.005V108.385H201.48V72.1655ZM206.003 76.3069V90.3251H215.08C217.47 90.3251 219.377 89.6855 220.8 88.4049C222.225 87.1259 222.936 85.4247 222.936 83.3028C222.936 81.1809 222.228 79.4858 220.813 78.2146C219.397 76.9433 217.503 76.3069 215.13 76.3069H206.002H206.003Z" fill="#6966FF"/>
<path d="M136.172 72.1655H163.35V75.4237L141.586 104.242H164.036V108.385H135.484V105.127L157.273 76.3084H136.172V72.1655Z" fill="#6966FF"/>
</svg>
