<svg width="251" height="74" viewBox="0 0 251 74" fill="none" xmlns="http://www.w3.org/2000/svg">
<path d="M245.048 46.0119L222.973 67.4248L225.362 69.7422L247.437 48.3293L245.048 46.0119Z" fill="#6966FF"/>
<path d="M236.894 42.7354H233.516V73.019H236.894V42.7354Z" fill="#6966FF"/>
<path d="M225.364 46.0136L222.975 48.3311L245.05 69.7439L247.439 67.4265L225.364 46.0136Z" fill="#6966FF"/>
<path d="M250.816 56.2383H219.596V59.5156H250.816V56.2383Z" fill="#6966FF"/>
<path d="M0 0.418945H11.9953C15.131 0.418945 17.6379 1.26451 19.5175 2.95318C21.3971 4.64307 22.3376 6.90203 22.3376 9.73252C22.3376 12.563 21.3946 14.8257 19.5074 16.5217C17.6214 18.2178 15.117 19.0658 11.9966 19.0658H3.87627V30.7026H0.00127188V0.418945H0ZM3.875 3.88268V15.6033H11.6479C13.6942 15.6033 15.3269 15.0726 16.5461 14.0097C17.7652 12.9469 18.376 11.5212 18.376 9.73252C18.376 7.94387 17.7728 6.52307 16.5677 5.46642C15.3638 4.40977 13.7375 3.88268 11.6912 3.88268H3.875Z" fill="white"/>
<path d="M27.2363 30.7026V0.418945H31.1113V27.2388H45.3502V30.7026H27.2376H27.2363Z" fill="white"/>
<path d="M73.3242 0.375H77.875L87.063 15.4323L96.3808 0.375H100.757L88.9795 19.5083V30.7006H85.1045V19.5083L73.3255 0.375H73.3242Z" fill="white"/>
<path d="M105.066 0.418945H124.964V3.88268H108.939V13.5765H122.285V17.039H108.939V27.2388H125.529V30.7026H105.064V0.418945H105.066Z" fill="white"/>
<path d="M130.775 0.418945H142.727C145.862 0.418945 148.376 1.26451 150.271 2.95318C152.166 4.64307 153.113 6.90203 153.113 9.73252C153.113 11.8446 152.51 13.6678 151.306 15.2022C150.101 16.7365 148.49 17.7784 146.473 18.3277L153.483 30.7026H149.107L142.641 19.0658H134.65V30.7026H130.775V0.418945ZM134.65 3.88268V15.6033H142.423C144.47 15.6033 146.102 15.0688 147.321 13.9986C148.541 12.9296 149.151 11.5064 149.151 9.73252C149.151 7.95868 148.544 6.54035 147.333 5.47753C146.12 4.41471 144.499 3.88268 142.467 3.88268H134.65Z" fill="white"/>
<path d="M105.072 43.0332H128.345V45.7575L109.708 69.8531H128.931V73.3168H104.482V70.5925L123.141 46.4969H105.072V43.0332Z" fill="white"/>
<path d="M134.18 43.0332H189.071V46.4969H138.055V56.1907H186.394V59.6532H138.055V69.8531H189.637V73.3168H134.181V43.0332H134.18Z" fill="white"/>
<path d="M193.469 43.0332H205.421C208.555 43.0332 211.07 43.8788 212.965 45.5674C214.86 47.2573 215.806 49.5163 215.806 52.3468C215.806 54.4588 215.203 56.2821 213.999 57.8164C212.794 59.3508 211.183 60.3926 209.166 60.9419L216.177 73.3168H211.8L205.334 61.6801H197.344V73.3168H193.469V43.0332ZM197.344 46.4957V58.2164H205.117C207.163 58.2164 208.796 57.6819 210.015 56.6116C211.234 55.5426 211.845 54.1194 211.845 52.3455C211.845 50.5717 211.238 49.1534 210.026 48.0906C208.814 47.0277 207.192 46.4957 205.16 46.4957H197.344Z" fill="white"/>
<path d="M75.0834 30.4424L64.0209 23.8111C63.4673 23.4791 62.7852 23.4791 62.2316 23.8111L51.1691 30.4424C49.6356 31.362 47.8858 29.656 48.6774 28.0155L61.5279 1.39806C62.1858 0.035281 64.0641 0.035281 64.7221 1.39806L77.5726 28.0155C78.3654 29.656 76.6143 31.362 75.0809 30.4424H75.0834Z" fill="#FF3096"/>
</svg>
