<svg width="75" height="58" viewBox="0 0 75 58" fill="none" xmlns="http://www.w3.org/2000/svg">
<g clip-path="url(#clip0_457_102)">
<mask id="mask0_457_102" style="mask-type:luminance" maskUnits="userSpaceOnUse" x="0" y="6" width="75" height="46">
<path d="M74.6669 6.38477H0.000244141V51.0906H74.6669V6.38477Z" fill="white"/>
</mask>
<g mask="url(#mask0_457_102)">
<path d="M38.0959 9.32259L38.3499 11.0682H41.8631L40.8472 6.38477H36.1488L33.2705 11.0682H37.1224L38.0959 9.32259Z" fill="white"/>
<path d="M41.9042 18.6045L40.5921 12.3457H37.0788L37.3328 14.0914H34.8354L35.8513 12.3457H31.9995L28.1899 18.6045H32.3381L33.227 16.9866H37.7984L38.0523 18.6045H41.9042Z" fill="white"/>
<path d="M52.8252 17.8381C54.0527 17.3272 54.9839 16.5609 55.6188 15.6241C56.2537 14.6874 56.5924 13.623 56.5924 12.3457H52.5712C52.5712 12.4734 52.6135 12.5586 52.6135 12.6863C52.6135 13.5804 52.3172 14.2617 51.6823 14.7726C51.0474 15.2835 50.2431 15.539 49.2273 15.539H47.7035L48.3384 12.3457H44.4442L43.1743 18.6045H48.5077C50.1585 18.6045 51.5977 18.3491 52.8252 17.8381Z" fill="white"/>
<path d="M49.9479 9.45041H51.514C52.3182 9.45041 52.9108 9.62072 53.2918 9.91876C53.588 10.1742 53.7997 10.5574 53.842 11.0683H57.8632C57.8632 11.0683 57.8632 11.0683 57.8632 11.0258C57.8632 9.49298 57.3553 8.34341 56.3818 7.53445C55.4081 6.76806 53.9691 6.34229 52.0219 6.34229H46.6886L45.7151 11.0683H49.5669L49.9479 9.45041Z" fill="white"/>
<path d="M63.7036 14.6874L65.6507 12.3457H58.8782L59.8094 14.5171L58.9629 18.6045H62.8994L63.7036 14.6874Z" fill="white"/>
<path d="M66.9211 11.0682L70.8999 6.38477H66.6671L63.5771 10.2593L62.0957 6.38477H58.0322L60.1486 11.0682H66.9211Z" fill="white"/>
<path d="M11.0055 9.10969H12.6986C13.2489 9.10969 13.6721 9.19485 13.8838 9.32259C14.1378 9.45031 14.2224 9.70577 14.2224 10.0464C14.2224 10.5573 13.9684 10.8979 13.4605 11.0682H17.7357C17.8626 10.685 17.9473 10.2593 17.9473 9.79093C17.9473 8.72651 17.5663 7.87496 16.7621 7.27888C15.9579 6.6828 14.8996 6.38477 13.5452 6.38477H7.78854L7.23828 9.10969H11.0055Z" fill="white"/>
<path d="M30.5191 6.38477H20.699L20.1064 9.15227H29.9689L30.5191 6.38477Z" fill="white"/>
<path d="M25.0165 11.494L25.1435 10.8979H19.8525L19.7255 11.494L19.3022 13.6229H24.5933L25.0165 11.494Z" fill="white"/>
<path d="M27.7247 15.8374H17.7353L17.1851 18.6049H27.1744L27.7247 15.8374Z" fill="white"/>
<path d="M22.3917 31.2927H16.8891L17.524 28.1846H13.5875L12.3176 34.4434H21.7568L22.3917 31.2927Z" fill="white"/>
<path d="M14.8572 26.907H18.7937L19.725 22.2236H15.8307L14.8572 26.907Z" fill="white"/>
<path d="M28.0634 32.8254H32.5925L32.8888 34.4434H36.7406L35.3862 28.1846H31.9153L32.1692 29.9301H29.6719L30.6454 28.1846H26.8359L23.0264 34.4434H27.1745L28.0634 32.8254Z" fill="white"/>
<path d="M30.9843 22.2236L28.106 26.907H31.9155L32.889 25.1614L33.1853 26.907H36.6562L35.6827 22.2236H30.9843Z" fill="white"/>
<path d="M39.7467 30.356L38.9001 34.4434H42.8366L43.6409 30.5262L45.588 28.1846H38.7732L39.7467 30.356Z" fill="white"/>
<path d="M46.604 22.2236L43.514 26.0981L42.0325 22.2236H37.969L40.0431 26.907H46.8579L50.8368 22.2236H46.604Z" fill="white"/>
<path d="M8.17012 24.7779C8.72039 24.7779 9.14367 24.8631 9.35533 24.9908C9.60931 25.1186 9.69394 25.3314 9.69394 25.672C9.69394 26.481 9.10134 26.8642 7.87383 26.9068H13.2072C13.4188 26.4384 13.5035 25.8849 13.5035 25.2889C13.5035 24.1818 13.1225 23.3304 12.4029 22.7768C11.6411 22.2233 10.5405 21.9253 9.05901 21.9253H3.5987L3.0061 24.7779H6.7733H8.17012Z" fill="white"/>
<path d="M11.979 28.1846H6.64574C6.60342 28.1846 6.51876 28.1846 6.47644 28.1846H5.54522H5.12194H1.31241L0.000244141 34.4434H3.76744L4.48701 31.0797H6.13781C8.04257 31.0797 9.52404 30.6966 10.6246 29.8876C11.2595 29.4193 11.6827 28.8658 11.979 28.1846Z" fill="white"/>
<path d="M8.63454 15.0281H10.497L11.9361 18.6472H16.0843L14.1371 14.4321C14.9414 14.0915 15.5763 13.6231 15.9996 13.027C16.1689 12.8141 16.2959 12.5587 16.3806 12.3032H11.4282C11.3012 12.3032 11.1319 12.3032 11.0049 12.3032H9.73511H9.1848H5.50226L4.23242 18.6047H7.87263L8.63454 15.0281Z" fill="white"/>
<path d="M62.0526 22.2661H52.1902L51.6399 25.0336H61.46L62.0526 22.2661Z" fill="white"/>
<path d="M50.7942 29.6741H56.0852L56.5932 26.9492H51.3022L50.7942 29.6741Z" fill="white"/>
<path d="M48.7197 34.4853H58.7092L59.2594 31.7178H49.27L48.7197 34.4853Z" fill="white"/>
<path d="M73.482 23.1178C72.6779 22.5217 71.6196 22.2236 70.2651 22.2236H64.5085L63.9583 24.9486H67.7255H69.4185C69.9688 24.9486 70.3921 25.0337 70.6038 25.1614C70.8577 25.2892 70.9424 25.5446 70.9424 25.8852C70.9424 26.3962 70.6884 26.7368 70.1805 26.907H74.4556C74.5826 26.5239 74.6672 26.0981 74.6672 25.6298C74.6672 24.5653 74.244 23.7138 73.482 23.1178Z" fill="white"/>
<path d="M72.7199 28.8229C72.8891 28.61 73.0162 28.3545 73.1008 28.0991H68.1484C68.0214 28.0991 67.8521 28.0991 67.7251 28.0991H66.4553H65.905H62.2225L60.9526 34.4431H64.5928L65.3548 30.824H67.2172L68.6563 34.4431H72.8045L70.8575 30.228C71.6616 29.8874 72.2965 29.419 72.7199 28.8229Z" fill="white"/>
<path d="M26.8782 41.6817H36.6983L37.2909 38.8716H27.4285L26.8782 41.6817Z" fill="white"/>
<path d="M31.831 43.5547H26.54L25.9897 46.2796H31.2808L31.831 43.5547Z" fill="white"/>
<path d="M23.958 51.0907H33.905L34.4976 48.3232H24.5083L23.958 51.0907Z" fill="white"/>
<path d="M10.4548 43.5551H16.7617L15.6612 38.8716H11.4284L10.4548 43.5551Z" fill="white"/>
<path d="M25.82 38.8716H21.3333L18.3279 43.5551H24.8888L25.82 38.8716Z" fill="white"/>
<path d="M15.9153 46.6628L15.492 44.832H9.18512L7.91528 51.0909H11.4285L12.5291 45.8114L13.6719 51.0909H16.5079L19.8518 45.6836L18.7513 51.0909H22.3492L23.619 44.832H17.0582L15.9153 46.6628Z" fill="white"/>
</g>
</g>
<defs>
<clipPath id="clip0_457_102">
<rect width="75" height="57" fill="white" transform="translate(0.000244141 0.123047)"/>
</clipPath>
</defs>
</svg>
