<svg width="498" height="362" viewBox="0 0 498 362" fill="none" xmlns="http://www.w3.org/2000/svg">
<g filter="url(#filter0_ddd_458_33)">
<path d="M48.0013 40.0423H59.8302C62.923 40.0423 65.3944 40.9007 67.2482 42.6174C69.1007 44.3341 70.0283 46.6297 70.0283 49.5041C70.0283 52.3785 69.0981 54.6781 67.2363 56.4027C65.3759 58.126 62.9072 58.987 59.8289 58.987H51.8211V70.8091H48V40.0423H48.0013ZM51.8225 43.5615V55.4692H59.4872C61.506 55.4692 63.1157 54.9299 64.3177 53.85C65.5211 52.7701 66.1214 51.3224 66.1214 49.5054C66.1214 47.6885 65.5277 46.2447 64.3388 45.1714C63.1513 44.0981 61.5482 43.5628 59.5294 43.5628H51.8211L51.8225 43.5615Z" fill="#E066FF"/>
<path d="M74.8604 70.8091V40.0423H78.6815V67.2899H92.7231V70.8091H74.8604Z" fill="#E066FF"/>
<path d="M120.31 40H124.798L133.858 55.2964L143.047 40H147.363L135.748 59.4379V70.809H131.927V59.4379L120.312 40H120.31Z" fill="#E066FF"/>
<path d="M151.613 40.0423H171.236V43.5615H155.434V53.4096H168.596V56.9275H155.434V67.2899H171.794V70.8091H151.613V40.0423Z" fill="#E066FF"/>
<path d="M176.967 40.0423H188.754C191.845 40.0423 194.325 40.9007 196.193 42.6174C198.061 44.3341 198.994 46.6297 198.994 49.5041C198.994 51.6507 198.401 53.5019 197.213 55.0618C196.024 56.6216 194.436 57.6791 192.447 58.2368L199.36 70.8091H195.044L188.668 58.987H180.788V70.8091H176.967V40.0423ZM180.788 43.5615V55.4692H188.453C190.472 55.4692 192.082 54.9259 193.284 53.8382C194.487 52.7517 195.087 51.3066 195.087 49.5041C195.087 47.7017 194.49 46.2618 193.294 45.182C192.099 44.1021 190.5 43.5615 188.495 43.5615H180.787H180.788Z" fill="#E066FF"/>
<path d="M122.045 70.5466L111.136 63.8089C110.59 63.4714 109.918 63.4714 109.372 63.8089L98.4625 70.5466C96.9504 71.4802 95.2246 69.7476 96.0057 68.081L108.679 41.0391C109.328 39.6546 111.179 39.6546 111.829 41.0391L124.502 68.081C125.283 69.7476 123.557 71.4802 122.045 70.5466Z" fill="#E066FF"/>
<path d="M171.769 107.752C171.769 107.752 171.765 107.759 171.765 107.763C171.765 107.76 171.767 107.756 171.767 107.752H171.77H171.769Z" fill="#E066FF"/>
<path d="M166.139 81.1741H185.762V84.6933H169.96V94.5414H183.121V98.0593H169.96V108.422H186.32V111.941H166.139V81.1741Z" fill="#E066FF"/>
<path d="M232.546 81.1147C224.012 81.1147 217.093 88.0278 217.093 96.5574C217.093 105.087 224.011 112 232.546 112C241.082 112 248 105.087 248 96.5574C248 88.0278 241.082 81.1147 232.546 81.1147Z" fill="#E066FF"/>
<path d="M191.473 81.1318H203.259C206.351 81.1318 208.83 81.9901 210.698 83.7069C212.567 85.4236 213.5 87.7192 213.5 90.5936C213.5 92.7402 212.906 94.5914 211.718 96.1512C210.53 97.7111 208.941 98.7685 206.953 99.3263L213.865 111.899H209.549L203.174 100.077H195.294V111.899H191.473V81.1318ZM195.292 84.6496V96.5573H202.957C204.976 96.5573 206.586 96.0141 207.788 94.9263C208.991 93.8398 209.591 92.3947 209.591 90.5923C209.591 88.7898 208.994 87.35 207.798 86.2701C206.603 85.1902 205.004 84.6496 202.999 84.6496H195.291H195.292Z" fill="#E066FF"/>
<path d="M136.323 81.1318H159.274V83.8994L140.895 108.379H159.853V111.899H135.742V109.131L154.142 84.6509H136.323V81.1318Z" fill="#E066FF"/>
</g>
<defs>
<filter id="filter0_ddd_458_33" x="-202" y="-210" width="700" height="572" filterUnits="userSpaceOnUse" color-interpolation-filters="sRGB">
<feFlood flood-opacity="0" result="BackgroundImageFix"/>
<feColorMatrix in="SourceAlpha" type="matrix" values="0 0 0 0 0 0 0 0 0 0 0 0 0 0 0 0 0 0 127 0" result="hardAlpha"/>
<feOffset/>
<feGaussianBlur stdDeviation="125"/>
<feComposite in2="hardAlpha" operator="out"/>
<feColorMatrix type="matrix" values="0 0 0 0 0.0172682 0 0 0 0 0 0 0 0 0 0.88068 0 0 0 0.64 0"/>
<feBlend mode="normal" in2="BackgroundImageFix" result="effect1_dropShadow_458_33"/>
<feColorMatrix in="SourceAlpha" type="matrix" values="0 0 0 0 0 0 0 0 0 0 0 0 0 0 0 0 0 0 127 0" result="hardAlpha"/>
<feOffset/>
<feGaussianBlur stdDeviation="50"/>
<feComposite in2="hardAlpha" operator="out"/>
<feColorMatrix type="matrix" values="0 0 0 0 0.309337 0 0 0 0 0.166445 0 0 0 0 0.880906 0 0 0 1 0"/>
<feBlend mode="normal" in2="effect1_dropShadow_458_33" result="effect2_dropShadow_458_33"/>
<feColorMatrix in="SourceAlpha" type="matrix" values="0 0 0 0 0 0 0 0 0 0 0 0 0 0 0 0 0 0 127 0" result="hardAlpha"/>
<feOffset/>
<feGaussianBlur stdDeviation="10"/>
<feComposite in2="hardAlpha" operator="out"/>
<feColorMatrix type="matrix" values="0 0 0 0 0.560426 0 0 0 0 0 0 0 0 0 0.700533 0 0 0 1 0"/>
<feBlend mode="normal" in2="effect2_dropShadow_458_33" result="effect3_dropShadow_458_33"/>
<feBlend mode="normal" in="SourceGraphic" in2="effect3_dropShadow_458_33" result="shape"/>
</filter>
</defs>
</svg>
