<svg width="700" height="572" viewBox="0 0 700 572" fill="none" xmlns="http://www.w3.org/2000/svg">
<g filter="url(#filter0_ddd_1618_268)">
<path d="M250.001 250.042H261.83C264.923 250.042 267.394 250.901 269.248 252.618C271.101 254.334 272.028 256.63 272.028 259.504C272.028 262.379 271.098 264.678 269.236 266.403C267.376 268.126 264.907 268.987 261.829 268.987H253.821V280.809H250V250.042H250.001ZM253.822 253.562V265.469H261.487C263.506 265.469 265.116 264.93 266.318 263.85C267.521 262.77 268.121 261.323 268.121 259.506C268.121 257.689 267.528 256.245 266.339 255.172C265.151 254.098 263.548 253.563 261.529 253.563H253.821L253.822 253.562Z" fill="#E066FF"/>
<path d="M276.859 280.809V250.042H280.681V277.29H294.722V280.809H276.859Z" fill="#E066FF"/>
<path d="M322.309 250H326.796L335.857 265.296L345.045 250H349.361L337.746 269.438V280.809H333.925V269.438L322.31 250H322.309Z" fill="#E066FF"/>
<path d="M353.613 250.042H373.236V253.562H357.434V263.41H370.596V266.928H357.434V277.29H373.794V280.809H353.613V250.042Z" fill="#E066FF"/>
<path d="M378.969 250.042H390.755C393.847 250.042 396.326 250.901 398.195 252.618C400.063 254.334 400.996 256.63 400.996 259.504C400.996 261.651 400.402 263.502 399.214 265.062C398.026 266.622 396.437 267.679 394.449 268.237L401.361 280.809H397.045L390.67 268.987H382.79V280.809H378.969V250.042ZM382.79 253.562V265.469H390.455C392.473 265.469 394.083 264.926 395.285 263.838C396.488 262.752 397.089 261.307 397.089 259.504C397.089 257.702 396.491 256.262 395.296 255.182C394.1 254.102 392.501 253.562 390.497 253.562H382.789H382.79Z" fill="#E066FF"/>
<path d="M324.046 280.546L313.137 273.809C312.591 273.471 311.919 273.471 311.373 273.809L300.464 280.546C298.952 281.48 297.226 279.747 298.007 278.081L310.68 251.039C311.329 249.654 313.181 249.654 313.83 251.039L326.503 278.081C327.284 279.747 325.558 281.48 324.046 280.546Z" fill="#E066FF"/>
<path d="M373.77 317.752C373.77 317.752 373.766 317.759 373.766 317.763C373.766 317.76 373.768 317.756 373.768 317.752H373.771H373.77Z" fill="#E066FF"/>
<path d="M368.137 291.174H387.76V294.693H371.958V304.542H385.119V308.06H371.958V318.422H388.318V321.941H368.137V291.174Z" fill="#E066FF"/>
<path d="M434.547 291.115C426.013 291.115 419.094 298.028 419.094 306.557C419.094 315.087 426.012 322 434.547 322C443.083 322 450.001 315.087 450.001 306.557C450.001 298.028 443.083 291.115 434.547 291.115Z" fill="#E066FF"/>
<path d="M393.473 291.132H405.259C408.351 291.132 410.83 291.99 412.698 293.707C414.567 295.424 415.5 297.719 415.5 300.594C415.5 302.74 414.906 304.591 413.718 306.151C412.53 307.711 410.941 308.769 408.953 309.326L415.865 321.899H411.549L405.174 310.077H397.294V321.899H393.473V291.132ZM397.292 294.65V306.557H404.957C406.976 306.557 408.586 306.014 409.788 304.926C410.991 303.84 411.591 302.395 411.591 300.592C411.591 298.79 410.994 297.35 409.798 296.27C408.603 295.19 407.004 294.65 404.999 294.65H397.291H397.292Z" fill="#E066FF"/>
<path d="M338.323 291.132H361.273V293.899L342.895 318.379H361.853V321.899H337.742V319.131L356.142 294.651H338.323V291.132Z" fill="#E066FF"/>
</g>
<defs>
<filter id="filter0_ddd_1618_268" x="0" y="0" width="700" height="572" filterUnits="userSpaceOnUse" color-interpolation-filters="sRGB">
<feFlood flood-opacity="0" result="BackgroundImageFix"/>
<feColorMatrix in="SourceAlpha" type="matrix" values="0 0 0 0 0 0 0 0 0 0 0 0 0 0 0 0 0 0 127 0" result="hardAlpha"/>
<feOffset/>
<feGaussianBlur stdDeviation="125"/>
<feComposite in2="hardAlpha" operator="out"/>
<feColorMatrix type="matrix" values="0 0 0 0 0.0172682 0 0 0 0 0 0 0 0 0 0.88068 0 0 0 0.64 0"/>
<feBlend mode="normal" in2="BackgroundImageFix" result="effect1_dropShadow_1618_268"/>
<feColorMatrix in="SourceAlpha" type="matrix" values="0 0 0 0 0 0 0 0 0 0 0 0 0 0 0 0 0 0 127 0" result="hardAlpha"/>
<feOffset/>
<feGaussianBlur stdDeviation="50"/>
<feComposite in2="hardAlpha" operator="out"/>
<feColorMatrix type="matrix" values="0 0 0 0 0.309337 0 0 0 0 0.166445 0 0 0 0 0.880906 0 0 0 1 0"/>
<feBlend mode="normal" in2="effect1_dropShadow_1618_268" result="effect2_dropShadow_1618_268"/>
<feColorMatrix in="SourceAlpha" type="matrix" values="0 0 0 0 0 0 0 0 0 0 0 0 0 0 0 0 0 0 127 0" result="hardAlpha"/>
<feOffset/>
<feGaussianBlur stdDeviation="10"/>
<feComposite in2="hardAlpha" operator="out"/>
<feColorMatrix type="matrix" values="0 0 0 0 0.560426 0 0 0 0 0 0 0 0 0 0.700533 0 0 0 1 0"/>
<feBlend mode="normal" in2="effect2_dropShadow_1618_268" result="effect3_dropShadow_1618_268"/>
<feBlend mode="normal" in="SourceGraphic" in2="effect3_dropShadow_1618_268" result="shape"/>
</filter>
</defs>
</svg>
