<svg width="240" height="71" viewBox="0 0 240 71" fill="none" xmlns="http://www.w3.org/2000/svg">
<path d="M234.481 44.1714L213.359 64.7197L215.645 66.9436L236.767 46.3952L234.481 44.1714Z" fill="#6966FF"/>
<path d="M226.68 41.0254H223.447V70.0863H226.68V41.0254Z" fill="#6966FF"/>
<path d="M215.646 44.1726L213.36 46.3965L234.482 66.9448L236.768 64.721L215.646 44.1726Z" fill="#6966FF"/>
<path d="M240 53.9834H210.127V57.1284H240V53.9834Z" fill="#6966FF"/>
<path d="M0 0.416992H11.4777C14.4781 0.416992 16.8769 1.22842 18.6754 2.8489C20.4739 4.47057 21.3737 6.63832 21.3737 9.35453C21.3737 12.0707 20.4714 14.242 18.6656 15.8696C16.861 17.4972 14.4647 18.311 11.479 18.311H3.70901V29.4779H0.001217V0.416992H0ZM3.7078 3.74088V14.9883H11.1453C13.1033 14.9883 14.6656 14.479 15.8321 13.459C16.9986 12.4391 17.5831 11.071 17.5831 9.35453C17.5831 7.6381 17.0059 6.27466 15.8528 5.26068C14.7009 4.24669 13.1447 3.74088 11.1867 3.74088H3.7078Z" fill="#26262A"/>
<path d="M26.0612 29.4779V0.416992H29.769V26.154H43.3934V29.4779H26.0624H26.0612Z" fill="#26262A"/>
<path d="M70.1617 0.375H74.5161L83.3077 14.8243L92.2234 0.375H96.411L85.1415 18.7358V29.4762H81.4337V18.7358L70.163 0.375H70.1617Z" fill="#26262A"/>
<path d="M100.535 0.416992H119.574V3.74088H104.241V13.0433H117.011V16.366H104.241V26.154H120.115V29.4779H100.534V0.416992H100.535Z" fill="#26262A"/>
<path d="M125.136 0.416992H136.573C139.572 0.416992 141.978 1.22842 143.791 2.8489C145.604 4.47057 146.51 6.63832 146.51 9.35453C146.51 11.3813 145.933 13.1309 144.781 14.6033C143.628 16.0758 142.086 17.0755 140.156 17.6027L146.864 29.4779H142.677L136.49 18.311H128.844V29.4779H125.136V0.416992ZM128.844 3.74088V14.9883H136.282C138.24 14.9883 139.802 14.4754 140.968 13.4484C142.135 12.4226 142.719 11.0567 142.719 9.35453C142.719 7.65231 142.139 6.29125 140.979 5.27134C139.819 4.25143 138.268 3.74088 136.323 3.74088H128.844Z" fill="#26262A"/>
<path d="M100.541 41.3125H122.81V43.9268L104.977 67.0495H123.371V70.3734H99.9773V67.7591L117.831 44.6364H100.541V41.3125Z" fill="#26262A"/>
<path d="M128.394 41.3125H180.918V44.6365H132.102V53.9392H178.356V57.262H132.102V67.0503H181.46V70.3743H128.395V41.3125H128.394Z" fill="#26262A"/>
<path d="M185.127 41.3125H196.563C199.562 41.3125 201.968 42.1239 203.781 43.7444C205.594 45.3661 206.5 47.5338 206.5 50.25C206.5 52.2768 205.923 54.0264 204.771 55.4988C203.618 56.9713 202.077 57.971 200.147 58.4982L206.855 70.3734H202.667L196.48 59.2065H188.834V70.3734H185.127V41.3125ZM188.834 44.6352V55.8826H196.272C198.23 55.8826 199.792 55.3697 200.959 54.3427C202.125 53.3169 202.71 51.9511 202.71 50.2489C202.71 48.5466 202.129 47.1856 200.97 46.1657C199.809 45.1457 198.258 44.6352 196.313 44.6352H188.834Z" fill="#26262A"/>
<path d="M71.845 29.2284L61.2599 22.8649C60.7302 22.5463 60.0775 22.5463 59.5478 22.8649L48.9626 29.2284C47.4953 30.1109 45.821 28.4739 46.5784 26.8996L58.8745 1.3568C59.504 0.0490367 61.3013 0.0490367 61.9308 1.3568L74.2268 26.8996C74.9854 28.4739 73.3099 30.1109 71.8426 29.2284H71.845Z" fill="#FF3096"/>
</svg>
