<svg width="198" height="58" viewBox="0 0 198 58" fill="none" xmlns="http://www.w3.org/2000/svg">
<path d="M193.138 36.2882L175.707 53.3149L177.593 55.1577L195.024 38.1309L193.138 36.2882Z" fill="#6966FF"/>
<path d="M186.701 33.6831H184.033V57.7636H186.701V33.6831Z" fill="#6966FF"/>
<path d="M177.595 36.2906L175.709 38.1333L193.14 55.1601L195.026 53.3173L177.595 36.2906Z" fill="#6966FF"/>
<path d="M197.693 44.4204H173.041V47.0264H197.693V44.4204Z" fill="#6966FF"/>
<path d="M0 0.0341797H9.47158C11.9475 0.0341797 13.927 0.706544 15.4112 2.04931C16.8953 3.39306 17.6379 5.1893 17.6379 7.44C17.6379 9.6907 16.8933 11.4899 15.4031 12.8385C13.914 14.1872 11.9364 14.8615 9.47258 14.8615H3.06073V24.1146H0.00100428V0.0341797H0ZM3.05972 2.78842V12.1083H9.19726C10.813 12.1083 12.1022 11.6862 13.0649 10.8411C14.0275 9.99597 14.5098 8.86227 14.5098 7.44C14.5098 6.01773 14.0335 4.88796 13.082 4.04775C12.1314 3.20754 10.8472 2.78842 9.23142 2.78842H3.05972Z" fill="white"/>
<path d="M21.5059 24.1146V0.0341797H24.5656V21.3604H35.8087V24.1146H21.5069H21.5059Z" fill="white"/>
<path d="M57.8965 0H61.4898L68.7447 11.973L76.1021 0H79.5577L70.258 15.2141V24.1138H67.1982V15.2141L57.8975 0H57.8965Z" fill="white"/>
<path d="M82.96 0.0341797H98.6716V2.78842H86.0187V10.4966H96.5564V13.2498H86.0187V21.3604H99.1177V24.1146H82.959V0.0341797H82.96Z" fill="white"/>
<path d="M103.262 0.0341797H112.699C115.174 0.0341797 117.16 0.706544 118.656 2.04931C120.152 3.39306 120.9 5.1893 120.9 7.44C120.9 9.11944 120.423 10.5692 119.473 11.7893C118.521 13.0093 117.249 13.8378 115.656 14.2746L121.192 24.1146H117.736L112.631 14.8615H106.321V24.1146H103.262V0.0341797ZM106.321 2.78842V12.1083H112.459C114.075 12.1083 115.364 11.6833 116.327 10.8322C117.289 9.98222 117.772 8.85049 117.772 7.44C117.772 6.02951 117.292 4.9017 116.336 4.05659C115.378 3.21147 114.098 2.78842 112.493 2.78842H106.321Z" fill="white"/>
<path d="M82.9652 33.9194H101.342V36.0857L86.6259 55.2456H101.805V57.9999H82.5V55.8336L97.2329 36.6737H82.9652V33.9194Z" fill="white"/>
<path d="M105.949 33.9194H149.292V36.6737H109.009V44.3818H147.178V47.1351H109.009V55.2456H149.739V57.9999H105.95V33.9194H105.949Z" fill="white"/>
<path d="M152.764 33.9194H162.201C164.676 33.9194 166.662 34.5918 168.158 35.9346C169.654 37.2783 170.402 39.0746 170.402 41.3253C170.402 43.0047 169.925 44.4544 168.975 45.6745C168.023 46.8946 166.751 47.723 165.158 48.1598L170.694 57.9999H167.238L162.133 48.7468H155.823V57.9999H152.764V33.9194ZM155.823 36.6727V45.9925H161.961C163.577 45.9925 164.866 45.5675 165.829 44.7165C166.791 43.8665 167.274 42.7348 167.274 41.3243C167.274 39.9138 166.794 38.786 165.838 37.9409C164.88 37.0957 163.6 36.6727 161.995 36.6727H155.823Z" fill="white"/>
<path d="M59.2871 23.9087L50.552 18.6358C50.1149 18.3717 49.5763 18.3717 49.1392 18.6358L40.4042 23.9087C39.1934 24.6399 37.8117 23.2834 38.4367 21.9789L48.5836 0.813703C49.1031 -0.269932 50.5862 -0.269932 51.1057 0.813703L61.2525 21.9789C61.8786 23.2834 60.4959 24.6399 59.2851 23.9087H59.2871Z" fill="#1CE1F1"/>
</svg>
