<svg width="251" height="73" viewBox="0 0 251 73" fill="none" xmlns="http://www.w3.org/2000/svg">
<path d="M245.048 45.6364L222.973 67.0493L225.362 69.3667L247.437 47.9539L245.048 45.6364Z" fill="#6966FF"/>
<path d="M236.894 42.3599H233.516V72.6435H236.894V42.3599Z" fill="#6966FF"/>
<path d="M225.364 45.6386L222.975 47.9561L245.05 69.3689L247.439 67.0515L225.364 45.6386Z" fill="#6966FF"/>
<path d="M250.816 55.8633H219.596V59.1406H250.816V55.8633Z" fill="#6966FF"/>
<path d="M0 0.0439453H11.9953C15.131 0.0439453 17.6379 0.889512 19.5175 2.57818C21.3971 4.26807 22.3376 6.52703 22.3376 9.35752C22.3376 12.188 21.3946 14.4507 19.5074 16.1467C17.6214 17.8428 15.117 18.6908 11.9966 18.6908H3.87627V30.3276H0.00127188V0.0439453H0ZM3.875 3.50768V15.2283H11.6479C13.6942 15.2283 15.3269 14.6976 16.5461 13.6347C17.7652 12.5719 18.376 11.1462 18.376 9.35752C18.376 7.56887 17.7728 6.14807 16.5677 5.09142C15.3638 4.03477 13.7375 3.50768 11.6912 3.50768H3.875Z" fill="white"/>
<path d="M27.2363 30.3276V0.0439453H31.1113V26.8638H45.3502V30.3276H27.2376H27.2363Z" fill="white"/>
<path d="M73.3242 0H77.875L87.063 15.0573L96.3808 0H100.757L88.9795 19.1333V30.3256H85.1045V19.1333L73.3255 0H73.3242Z" fill="white"/>
<path d="M105.066 0.0439453H124.964V3.50768H108.939V13.2015H122.285V16.664H108.939V26.8638H125.529V30.3276H105.064V0.0439453H105.066Z" fill="white"/>
<path d="M130.775 0.0439453H142.727C145.862 0.0439453 148.376 0.889512 150.271 2.57818C152.166 4.26807 153.113 6.52703 153.113 9.35752C153.113 11.4696 152.51 13.2928 151.306 14.8272C150.101 16.3615 148.49 17.4034 146.473 17.9527L153.483 30.3276H149.107L142.641 18.6908H134.65V30.3276H130.775V0.0439453ZM134.65 3.50768V15.2283H142.423C144.47 15.2283 146.102 14.6938 147.321 13.6236C148.541 12.5546 149.151 11.1314 149.151 9.35752C149.151 7.58368 148.544 6.16535 147.333 5.10253C146.12 4.03971 144.499 3.50768 142.467 3.50768H134.65Z" fill="white"/>
<path d="M105.072 42.6582H128.345V45.3825L109.708 69.4781H128.931V72.9418H104.482V70.2175L123.141 46.1219H105.072V42.6582Z" fill="white"/>
<path d="M134.18 42.6582H189.071V46.1219H138.055V55.8157H186.394V59.2782H138.055V69.4781H189.637V72.9418H134.181V42.6582H134.18Z" fill="white"/>
<path d="M193.469 42.6582H205.421C208.555 42.6582 211.07 43.5038 212.965 45.1924C214.86 46.8823 215.806 49.1413 215.806 51.9718C215.806 54.0838 215.203 55.9071 213.999 57.4414C212.794 58.9758 211.183 60.0176 209.166 60.5669L216.177 72.9418H211.8L205.334 61.3051H197.344V72.9418H193.469V42.6582ZM197.344 46.1207V57.8414H205.117C207.163 57.8414 208.796 57.3069 210.015 56.2366C211.234 55.1676 211.845 53.7444 211.845 51.9705C211.845 50.1967 211.238 48.7784 210.026 47.7156C208.814 46.6527 207.192 46.1207 205.16 46.1207H197.344Z" fill="white"/>
<path d="M75.0834 30.0674L64.0209 23.4361C63.4673 23.1041 62.7852 23.1041 62.2316 23.4361L51.1691 30.0674C49.6356 30.987 47.8858 29.281 48.6774 27.6405L61.5279 1.02306C62.1858 -0.339719 64.0641 -0.339719 64.7221 1.02306L77.5726 27.6405C78.3654 29.281 76.6143 30.987 75.0809 30.0674H75.0834Z" fill="#FF3096"/>
</svg>
