<svg width="64" height="64" viewBox="0 0 64 64" fill="none" xmlns="http://www.w3.org/2000/svg">
<path d="M11.75 59C9.89375 59 8.30469 58.3391 6.98281 57.0172C5.66094 55.6953 5 54.1063 5 52.25C5 50.3937 5.66094 48.8047 6.98281 47.4828C8.30469 46.1609 9.89375 45.5 11.75 45.5C13.6063 45.5 15.1953 46.1609 16.5172 47.4828C17.8391 48.8047 18.5 50.3937 18.5 52.25C18.5 54.1063 17.8391 55.6953 16.5172 57.0172C15.1953 58.3391 13.6063 59 11.75 59ZM32 59C30.1437 59 28.5547 58.3391 27.2328 57.0172C25.9109 55.6953 25.25 54.1063 25.25 52.25C25.25 50.3937 25.9109 48.8047 27.2328 47.4828C28.5547 46.1609 30.1437 45.5 32 45.5C33.8563 45.5 35.4453 46.1609 36.7672 47.4828C38.0891 48.8047 38.75 50.3937 38.75 52.25C38.75 54.1063 38.0891 55.6953 36.7672 57.0172C35.4453 58.3391 33.8563 59 32 59ZM52.25 59C50.3937 59 48.8047 58.3391 47.4828 57.0172C46.1609 55.6953 45.5 54.1063 45.5 52.25C45.5 50.3937 46.1609 48.8047 47.4828 47.4828C48.8047 46.1609 50.3937 45.5 52.25 45.5C54.1063 45.5 55.6953 46.1609 57.0172 47.4828C58.3391 48.8047 59 50.3937 59 52.25C59 54.1063 58.3391 55.6953 57.0172 57.0172C55.6953 58.3391 54.1063 59 52.25 59ZM11.75 38.75C9.89375 38.75 8.30469 38.0891 6.98281 36.7672C5.66094 35.4453 5 33.8563 5 32C5 30.1437 5.66094 28.5547 6.98281 27.2328C8.30469 25.9109 9.89375 25.25 11.75 25.25C13.6063 25.25 15.1953 25.9109 16.5172 27.2328C17.8391 28.5547 18.5 30.1437 18.5 32C18.5 33.8563 17.8391 35.4453 16.5172 36.7672C15.1953 38.0891 13.6063 38.75 11.75 38.75ZM32 38.75C30.1437 38.75 28.5547 38.0891 27.2328 36.7672C25.9109 35.4453 25.25 33.8563 25.25 32C25.25 30.1437 25.9109 28.5547 27.2328 27.2328C28.5547 25.9109 30.1437 25.25 32 25.25C33.8563 25.25 35.4453 25.9109 36.7672 27.2328C38.0891 28.5547 38.75 30.1437 38.75 32C38.75 33.8563 38.0891 35.4453 36.7672 36.7672C35.4453 38.0891 33.8563 38.75 32 38.75ZM52.25 38.75C50.3937 38.75 48.8047 38.0891 47.4828 36.7672C46.1609 35.4453 45.5 33.8563 45.5 32C45.5 30.1437 46.1609 28.5547 47.4828 27.2328C48.8047 25.9109 50.3937 25.25 52.25 25.25C54.1063 25.25 55.6953 25.9109 57.0172 27.2328C58.3391 28.5547 59 30.1437 59 32C59 33.8563 58.3391 35.4453 57.0172 36.7672C55.6953 38.0891 54.1063 38.75 52.25 38.75ZM11.75 18.5C9.89375 18.5 8.30469 17.8391 6.98281 16.5172C5.66094 15.1953 5 13.6063 5 11.75C5 9.89375 5.66094 8.30469 6.98281 6.98281C8.30469 5.66094 9.89375 5 11.75 5C13.6063 5 15.1953 5.66094 16.5172 6.98281C17.8391 8.30469 18.5 9.89375 18.5 11.75C18.5 13.6063 17.8391 15.1953 16.5172 16.5172C15.1953 17.8391 13.6063 18.5 11.75 18.5ZM32 18.5C30.1437 18.5 28.5547 17.8391 27.2328 16.5172C25.9109 15.1953 25.25 13.6063 25.25 11.75C25.25 9.89375 25.9109 8.30469 27.2328 6.98281C28.5547 5.66094 30.1437 5 32 5C33.8563 5 35.4453 5.66094 36.7672 6.98281C38.0891 8.30469 38.75 9.89375 38.75 11.75C38.75 13.6063 38.0891 15.1953 36.7672 16.5172C35.4453 17.8391 33.8563 18.5 32 18.5ZM52.25 18.5C50.3937 18.5 48.8047 17.8391 47.4828 16.5172C46.1609 15.1953 45.5 13.6063 45.5 11.75C45.5 9.89375 46.1609 8.30469 47.4828 6.98281C48.8047 5.66094 50.3937 5 52.25 5C54.1063 5 55.6953 5.66094 57.0172 6.98281C58.3391 8.30469 59 9.89375 59 11.75C59 13.6063 58.3391 15.1953 57.0172 16.5172C55.6953 17.8391 54.1063 18.5 52.25 18.5Z" fill="#E066FF"/>
</svg>
