<svg width="64" height="64" viewBox="0 0 64 64" fill="none" xmlns="http://www.w3.org/2000/svg">
<mask id="mask0_1612_346" style="mask-type:alpha" maskUnits="userSpaceOnUse" x="0" y="0" width="64" height="64">
<rect width="64" height="64" fill="#D9D9D9"/>
</mask>
<g mask="url(#mask0_1612_346)">
<path d="M32.0006 53C31.2451 53 30.5118 52.8333 29.8007 52.5C29.0895 52.1667 28.4673 51.6889 27.934 51.0667L7.53398 26.6667C7.13398 26.1778 6.83398 25.6444 6.63398 25.0667C6.43398 24.4889 6.33398 23.8889 6.33398 23.2667C6.33398 22.8667 6.36732 22.4556 6.43398 22.0333C6.50065 21.6111 6.6451 21.2222 6.86732 20.8667L11.8673 10.9333C12.3562 10.0444 13.0118 9.33333 13.834 8.8C14.6562 8.26667 15.5784 8 16.6007 8H47.4007C48.4229 8 49.3451 8.26667 50.1673 8.8C50.9895 9.33333 51.6451 10.0444 52.134 10.9333L57.134 20.8667C57.3562 21.2222 57.5006 21.6111 57.5673 22.0333C57.634 22.4556 57.6673 22.8667 57.6673 23.2667C57.6673 23.8889 57.5673 24.4889 57.3673 25.0667C57.1673 25.6444 56.8673 26.1778 56.4673 26.6667L36.0673 51.0667C35.534 51.6889 34.9118 52.1667 34.2006 52.5C33.4895 52.8333 32.7562 53 32.0006 53ZM25.6673 21.3333H38.334L34.334 13.3333H29.6673L25.6673 21.3333ZM29.334 44.4667V26.6667H14.534L29.334 44.4667ZM34.6673 44.4667L49.4673 26.6667H34.6673V44.4667ZM44.2673 21.3333H51.334L47.334 13.3333H40.2673L44.2673 21.3333ZM12.6673 21.3333H19.734L23.734 13.3333H16.6673L12.6673 21.3333Z" fill="#E066FF"/>
</g>
</svg>
