<svg width="64" height="64" viewBox="0 0 64 64" fill="none" xmlns="http://www.w3.org/2000/svg">
<mask id="mask0_1612_352" style="mask-type:alpha" maskUnits="userSpaceOnUse" x="0" y="0" width="64" height="64">
<rect width="64" height="64" fill="#D9D9D9"/>
</mask>
<g mask="url(#mask0_1612_352)">
<path d="M12.133 50.6668C9.86638 50.6668 8.11082 49.8779 6.86638 48.3002C5.62194 46.7224 5.15527 44.8002 5.46638 42.5335L8.26638 22.5335C8.66638 19.8668 9.85527 17.6668 11.833 15.9335C13.8108 14.2002 16.133 13.3335 18.7997 13.3335H45.1997C47.8664 13.3335 50.1886 14.2002 52.1664 15.9335C54.1442 17.6668 55.333 19.8668 55.733 22.5335L58.5331 42.5335C58.8442 44.8002 58.3775 46.7224 57.1331 48.3002C55.8886 49.8779 54.1331 50.6668 51.8664 50.6668C50.9331 50.6668 50.0664 50.5002 49.2664 50.1668C48.4664 49.8335 47.7331 49.3335 47.0664 48.6668L41.0664 42.6668H22.933L16.933 48.6668C16.2664 49.3335 15.533 49.8335 14.733 50.1668C13.933 50.5002 13.0664 50.6668 12.133 50.6668ZM13.1997 44.9335L20.7997 37.3335H43.1997L50.7997 44.9335C50.8886 45.0224 51.2442 45.1557 51.8664 45.3335C52.3553 45.3335 52.7442 45.1891 53.0331 44.9002C53.3219 44.6113 53.4219 44.2224 53.333 43.7335L50.3997 23.2002C50.2219 21.9113 49.6442 20.8335 48.6664 19.9668C47.6886 19.1002 46.533 18.6668 45.1997 18.6668H18.7997C17.4664 18.6668 16.3108 19.1002 15.333 19.9668C14.3553 20.8335 13.7775 21.9113 13.5997 23.2002L10.6664 43.7335C10.5775 44.2224 10.6775 44.6113 10.9664 44.9002C11.2553 45.1891 11.6442 45.3335 12.133 45.3335C12.2219 45.3335 12.5775 45.2002 13.1997 44.9335ZM45.333 34.6668C46.0886 34.6668 46.7219 34.4113 47.2331 33.9002C47.7442 33.3891 47.9997 32.7557 47.9997 32.0002C47.9997 31.2446 47.7442 30.6113 47.2331 30.1002C46.7219 29.5891 46.0886 29.3335 45.333 29.3335C44.5775 29.3335 43.9442 29.5891 43.4331 30.1002C42.9219 30.6113 42.6664 31.2446 42.6664 32.0002C42.6664 32.7557 42.9219 33.3891 43.4331 33.9002C43.9442 34.4113 44.5775 34.6668 45.333 34.6668ZM39.9997 26.6668C40.7553 26.6668 41.3886 26.4113 41.8997 25.9002C42.4108 25.3891 42.6664 24.7557 42.6664 24.0002C42.6664 23.2446 42.4108 22.6113 41.8997 22.1002C41.3886 21.5891 40.7553 21.3335 39.9997 21.3335C39.2442 21.3335 38.6108 21.5891 38.0997 22.1002C37.5886 22.6113 37.333 23.2446 37.333 24.0002C37.333 24.7557 37.5886 25.3891 38.0997 25.9002C38.6108 26.4113 39.2442 26.6668 39.9997 26.6668ZM20.6664 30.0002V32.6668C20.6664 33.2446 20.8553 33.7224 21.233 34.1002C21.6108 34.4779 22.0886 34.6668 22.6664 34.6668C23.2442 34.6668 23.7219 34.4779 24.0997 34.1002C24.4775 33.7224 24.6664 33.2446 24.6664 32.6668V30.0002H27.333C27.9108 30.0002 28.3886 29.8113 28.7664 29.4335C29.1442 29.0557 29.333 28.5779 29.333 28.0002C29.333 27.4224 29.1442 26.9446 28.7664 26.5668C28.3886 26.1891 27.9108 26.0002 27.333 26.0002H24.6664V23.3335C24.6664 22.7557 24.4775 22.2779 24.0997 21.9002C23.7219 21.5224 23.2442 21.3335 22.6664 21.3335C22.0886 21.3335 21.6108 21.5224 21.233 21.9002C20.8553 22.2779 20.6664 22.7557 20.6664 23.3335V26.0002H17.9997C17.4219 26.0002 16.9442 26.1891 16.5664 26.5668C16.1886 26.9446 15.9997 27.4224 15.9997 28.0002C15.9997 28.5779 16.1886 29.0557 16.5664 29.4335C16.9442 29.8113 17.4219 30.0002 17.9997 30.0002H20.6664Z" fill="#E066FF"/>
</g>
</svg>
