<svg width="64" height="64" viewBox="0 0 64 64" fill="none" xmlns="http://www.w3.org/2000/svg">
<mask id="mask0_1612_355" style="mask-type:alpha" maskUnits="userSpaceOnUse" x="0" y="0" width="64" height="64">
<rect width="64" height="64" fill="#D9D9D9"/>
</mask>
<g mask="url(#mask0_1612_355)">
<path d="M31.9993 10.6665C37.9549 10.6665 42.9994 12.7332 47.1327 16.8665C51.266 20.9998 53.3327 26.0443 53.3327 31.9998C53.3327 37.9554 51.266 42.9998 47.1327 47.1332C42.9994 51.2665 37.9549 53.3332 31.9993 53.3332C26.0438 53.3332 20.9994 51.2665 16.866 47.1332C12.7327 42.9998 10.666 37.9554 10.666 31.9998C10.666 26.0443 12.7327 20.9998 16.866 16.8665C20.9994 12.7332 26.0438 10.6665 31.9993 10.6665ZM31.9993 47.9998C36.4438 47.9998 40.2216 46.4443 43.3327 43.3332C46.4438 40.2221 47.9994 36.4443 47.9994 31.9998C47.9994 27.5554 46.4438 23.7776 43.3327 20.6665C40.2216 17.5554 36.4438 15.9998 31.9993 15.9998C27.5549 15.9998 23.7771 17.5554 20.666 20.6665C17.5549 23.7776 15.9993 27.5554 15.9993 31.9998C15.9993 36.4443 17.5549 40.2221 20.666 43.3332C23.7771 46.4443 27.5549 47.9998 31.9993 47.9998ZM22.666 26.6665C22.666 27.4221 22.9216 28.0554 23.4327 28.5665C23.9438 29.0776 24.5771 29.3332 25.3327 29.3332C26.0882 29.3332 26.7216 29.0776 27.2327 28.5665C27.7438 28.0554 27.9993 27.4221 27.9993 26.6665C27.9993 25.9109 27.7438 25.2776 27.2327 24.7665C26.7216 24.2554 26.0882 23.9998 25.3327 23.9998C24.5771 23.9998 23.9438 24.2554 23.4327 24.7665C22.9216 25.2776 22.666 25.9109 22.666 26.6665ZM35.9993 26.6665C35.9993 27.4221 36.2549 28.0554 36.766 28.5665C37.2771 29.0776 37.9105 29.3332 38.666 29.3332C39.4216 29.3332 40.0549 29.0776 40.566 28.5665C41.0771 28.0554 41.3327 27.4221 41.3327 26.6665C41.3327 25.9109 41.0771 25.2776 40.566 24.7665C40.0549 24.2554 39.4216 23.9998 38.666 23.9998C37.9105 23.9998 37.2771 24.2554 36.766 24.7665C36.2549 25.2776 35.9993 25.9109 35.9993 26.6665ZM2.66602 13.3332V7.99984C2.66602 6.53317 3.18824 5.27762 4.23268 4.23317C5.27713 3.18873 6.53268 2.6665 7.99935 2.6665H13.3327C14.0882 2.6665 14.7216 2.92206 15.2327 3.43317C15.7438 3.94428 15.9993 4.57762 15.9993 5.33317C15.9993 6.08873 15.7438 6.72206 15.2327 7.23317C14.7216 7.74428 14.0882 7.99984 13.3327 7.99984H7.99935V13.3332C7.99935 14.0887 7.74379 14.7221 7.23268 15.2332C6.72157 15.7443 6.08824 15.9998 5.33268 15.9998C4.57713 15.9998 3.94379 15.7443 3.43268 15.2332C2.92157 14.7221 2.66602 14.0887 2.66602 13.3332ZM13.3327 61.3332H7.99935C6.53268 61.3332 5.27713 60.811 4.23268 59.7665C3.18824 58.7221 2.66602 57.4665 2.66602 55.9998V50.6665C2.66602 49.9109 2.92157 49.2776 3.43268 48.7665C3.94379 48.2554 4.57713 47.9998 5.33268 47.9998C6.08824 47.9998 6.72157 48.2554 7.23268 48.7665C7.74379 49.2776 7.99935 49.9109 7.99935 50.6665V55.9998H13.3327C14.0882 55.9998 14.7216 56.2554 15.2327 56.7665C15.7438 57.2776 15.9993 57.911 15.9993 58.6665C15.9993 59.4221 15.7438 60.0554 15.2327 60.5665C14.7216 61.0776 14.0882 61.3332 13.3327 61.3332ZM55.9994 61.3332H50.666C49.9105 61.3332 49.2771 61.0776 48.766 60.5665C48.2549 60.0554 47.9994 59.4221 47.9994 58.6665C47.9994 57.911 48.2549 57.2776 48.766 56.7665C49.2771 56.2554 49.9105 55.9998 50.666 55.9998H55.9994V50.6665C55.9994 49.9109 56.2549 49.2776 56.766 48.7665C57.2771 48.2554 57.9105 47.9998 58.666 47.9998C59.4216 47.9998 60.0549 48.2554 60.566 48.7665C61.0771 49.2776 61.3327 49.9109 61.3327 50.6665V55.9998C61.3327 57.4665 60.8105 58.7221 59.766 59.7665C58.7216 60.811 57.466 61.3332 55.9994 61.3332ZM55.9994 13.3332V7.99984H50.666C49.9105 7.99984 49.2771 7.74428 48.766 7.23317C48.2549 6.72206 47.9994 6.08873 47.9994 5.33317C47.9994 4.57762 48.2549 3.94428 48.766 3.43317C49.2771 2.92206 49.9105 2.6665 50.666 2.6665H55.9994C57.466 2.6665 58.7216 3.18873 59.766 4.23317C60.8105 5.27762 61.3327 6.53317 61.3327 7.99984V13.3332C61.3327 14.0887 61.0771 14.7221 60.566 15.2332C60.0549 15.7443 59.4216 15.9998 58.666 15.9998C57.9105 15.9998 57.2771 15.7443 56.766 15.2332C56.2549 14.7221 55.9994 14.0887 55.9994 13.3332ZM31.9993 41.3332C33.6882 41.3332 35.2549 40.9332 36.6993 40.1332C38.1438 39.3332 39.3105 38.2443 40.1993 36.8665C40.466 36.3776 40.4549 35.8887 40.166 35.3998C39.8771 34.911 39.4438 34.6665 38.866 34.6665H25.1327C24.5549 34.6665 24.1216 34.911 23.8327 35.3998C23.5438 35.8887 23.5327 36.3776 23.7994 36.8665C24.6882 38.2443 25.8549 39.3332 27.2994 40.1332C28.7438 40.9332 30.3105 41.3332 31.9993 41.3332Z" fill="#E066FF"/>
</g>
</svg>
