<svg width="64" height="64" viewBox="0 0 64 64" fill="none" xmlns="http://www.w3.org/2000/svg">
<mask id="mask0_1612_349" style="mask-type:alpha" maskUnits="userSpaceOnUse" x="0" y="0" width="64" height="64">
<rect width="64" height="64" fill="#D9D9D9"/>
</mask>
<g mask="url(#mask0_1612_349)">
<path d="M32 61.3332C25.3778 61.3332 19.7222 60.3887 15.0333 58.4998C10.3444 56.6109 8 53.9998 8 50.6665C8 49.2443 8.44444 47.9665 9.33333 46.8332C10.2222 45.6998 11.4667 44.6887 13.0667 43.7998L17.4 47.6665C16.3333 48.0221 15.3889 48.4776 14.5667 49.0332C13.7444 49.5887 13.3333 50.1332 13.3333 50.6665C13.3333 51.8221 15.1333 52.9998 18.7333 54.1998C22.3333 55.3998 26.7556 55.9998 32 55.9998C37.2444 55.9998 41.6667 55.3998 45.2667 54.1998C48.8667 52.9998 50.6667 51.8221 50.6667 50.6665C50.6667 50.1332 50.2556 49.5887 49.4333 49.0332C48.6111 48.4776 47.6667 48.0221 46.6 47.6665L50.9333 43.7998C52.5333 44.6887 53.7778 45.6998 54.6667 46.8332C55.5556 47.9665 56 49.2443 56 50.6665C56 53.9998 53.6556 56.6109 48.9667 58.4998C44.2778 60.3887 38.6222 61.3332 32 61.3332ZM32 50.6665C31.0222 50.6665 30.0778 50.4998 29.1667 50.1665C28.2556 49.8332 27.4222 49.3332 26.6667 48.6665L9.86667 33.7998C9.28889 33.3109 8.83333 32.7109 8.5 31.9998C8.16667 31.2887 8 30.5554 8 29.7998V24.4665C8 23.7109 8.14444 22.9776 8.43333 22.2665C8.72222 21.5554 9.15556 20.9554 9.73333 20.4665L26.5333 4.79984C27.2889 4.08873 28.1333 3.55539 29.0667 3.19984C30 2.84428 30.9778 2.6665 32 2.6665C33.0222 2.6665 34 2.84428 34.9333 3.19984C35.8667 3.55539 36.7111 4.08873 37.4667 4.79984L54.2667 20.4665C54.8444 20.9554 55.2778 21.5554 55.5667 22.2665C55.8556 22.9776 56 23.7109 56 24.4665V29.7998C56 30.5554 55.8333 31.2887 55.5 31.9998C55.1667 32.7109 54.7111 33.3109 54.1333 33.7998L37.3333 48.6665C36.5778 49.3332 35.7444 49.8332 34.8333 50.1665C33.9222 50.4998 32.9778 50.6665 32 50.6665ZM31.7333 38.1332C32.3556 38.1332 32.9444 38.0332 33.5 37.8332C34.0556 37.6332 34.5778 37.3109 35.0667 36.8665L49.8667 23.7332L33.8667 8.6665C33.5556 8.44428 33.2444 8.27762 32.9333 8.1665C32.6222 8.05539 32.2889 7.99984 31.9333 7.99984C31.5778 7.99984 31.2444 8.05539 30.9333 8.1665C30.6222 8.27762 30.3556 8.44428 30.1333 8.6665L13.8667 23.9998L28.4 36.8665C28.8889 37.3109 29.4111 37.6332 29.9667 37.8332C30.5222 38.0332 31.1111 38.1332 31.7333 38.1332ZM24 27.3332C24.9333 27.3332 25.7222 27.0109 26.3667 26.3665C27.0111 25.7221 27.3333 24.9332 27.3333 23.9998C27.3333 23.0665 27.0111 22.2776 26.3667 21.6332C25.7222 20.9887 24.9333 20.6665 24 20.6665C23.0667 20.6665 22.2778 20.9887 21.6333 21.6332C20.9889 22.2776 20.6667 23.0665 20.6667 23.9998C20.6667 24.9332 20.9889 25.7221 21.6333 26.3665C22.2778 27.0109 23.0667 27.3332 24 27.3332ZM27.3333 30.9332C29.2444 31.8665 31.2556 32.1665 33.3667 31.8332C35.4778 31.4998 37.3333 30.6221 38.9333 29.1998C40.4444 27.9109 41.4333 26.2887 41.9 24.3332C42.3667 22.3776 42.1333 20.5332 41.2 18.7998L27.3333 30.9332ZM32 19.3332C32.9333 19.3332 33.7222 19.0109 34.3667 18.3665C35.0111 17.7221 35.3333 16.9332 35.3333 15.9998C35.3333 15.0665 35.0111 14.2776 34.3667 13.6332C33.7222 12.9887 32.9333 12.6665 32 12.6665C31.0667 12.6665 30.2778 12.9887 29.6333 13.6332C28.9889 14.2776 28.6667 15.0665 28.6667 15.9998C28.6667 16.9332 28.9889 17.7221 29.6333 18.3665C30.2778 19.0109 31.0667 19.3332 32 19.3332Z" fill="#E066FF"/>
</g>
</svg>
