<?xml version="1.0" standalone="no"?>
<!DOCTYPE svg PUBLIC "-//W3C//DTD SVG 1.1//EN" "http://www.w3.org/Graphics/SVG/1.1/DTD/svg11.dtd" >
<svg xmlns="http://www.w3.org/2000/svg" xmlns:xlink="http://www.w3.org/1999/xlink" version="1.1">
<metadata>
Created by FontForge 20201107 at Sun Sep 29 13:27:46 2024
 By 
Copyright (c)2014 Commercial Type.
</metadata>
<defs>
<font id="DrukXCond-Super" horiz-adv-x="452" >
  <font-face 
    font-family="Druk XCond Super Trial"
    font-weight="1000"
    font-stretch="extra-condensed"
    units-per-em="2048"
    panose-1="0 0 0 0 0 0 0 0 0 0"
    ascent="1749"
    descent="-299"
    x-height="1102"
    cap-height="1524"
    bbox="-43 -334 700 1534"
    underline-thickness="81"
    underline-position="-34"
    unicode-range="U+0020-201D"
  />
<missing-glyph horiz-adv-x="1024" 
 />
    <glyph glyph-name=".notdef" horiz-adv-x="1024" 
 />
    <glyph glyph-name=".null" horiz-adv-x="0" 
 />
    <glyph glyph-name="nonmarkingreturn" horiz-adv-x="682" 
 />
    <glyph glyph-name="space" unicode=" " horiz-adv-x="129" 
 />
    <glyph glyph-name="exclam" unicode="!" horiz-adv-x="223" 
d="M10 1524h203q-1 -49 -23.5 -574t-25.5 -702h-107q-3 167 -25 691.5t-22 584.5zM197 221v-221h-172v221h172z" />
    <glyph glyph-name="quotedbl" unicode="&#x22;" horiz-adv-x="307" 
d="M295 1524v-267h-131v267h131zM143 1524v-267h-131v267h131z" />
    <glyph glyph-name="quotesingle" unicode="'" horiz-adv-x="157" 
d="M145 1524v-267h-133v267h133z" />
    <glyph glyph-name="comma" unicode="," horiz-adv-x="196" 
d="M145 -141h-100q31 80 31 141h-64v221h172v-176q0 -89 -39 -186z" />
    <glyph glyph-name="hyphen" unicode="-" horiz-adv-x="229" 
d="M12 707h205v-185h-205v185z" />
    <glyph glyph-name="period" unicode="." horiz-adv-x="196" 
d="M184 221v-221h-172v221h172z" />
    <glyph glyph-name="zero" unicode="0" horiz-adv-x="477" 
d="M463 1303v-1086q0 -110 -54.5 -168.5t-154.5 -58.5h-29q-102 0 -156.5 59.5t-54.5 167.5v1086q0 110 52.5 170.5t158.5 60.5h29q106 0 157.5 -61t51.5 -170zM258 199v1128q0 31 -18 31q-21 0 -21 -31v-1128q0 -31 21 -31q18 0 18 31z" />
    <glyph glyph-name="one" unicode="1" horiz-adv-x="303" 
d="M90 1272h-84v166q105 0 111 86h168v-1524h-195v1272z" />
    <glyph glyph-name="two" unicode="2" horiz-adv-x="448" 
d="M215 1376q-18 0 -18 -22v-346h-179v358q0 73 47 120.5t138 47.5h28q98 0 149.5 -47.5t51.5 -136.5v-244q0 -87 -12 -145t-53 -160q-31 -77 -74 -174q-68 -143 -85.5 -202t-17.5 -130v-127h74v358h172v-526h-426v279q0 110 17 180t86 225l67 172q34 99 43.5 134.5
t9.5 78.5v285q0 22 -18 22z" />
    <glyph glyph-name="three" unicode="3" horiz-adv-x="448" 
d="M201 975h-178v391q0 76 44 121t140 45h26q99 0 147 -43.5t48 -120.5v-414q0 -68 -55 -102q26 -10 44.5 -37.5t18.5 -66.5v-574q0 -89 -51.5 -136.5t-148.5 -47.5h-29q-103 0 -149 46.5t-46 119.5v503h189v-469q0 -24 18 -24q19 0 19 24v519q0 18 -19 18h-90v180h86
q21 0 21 21v420q0 24 -19 24q-16 0 -16 -24v-373z" />
    <glyph glyph-name="four" unicode="4" horiz-adv-x="436" 
d="M8 438q8 51 71 486.5t91 603.5h199v-1063h61v-184h-61v-281h-193v281h-168v157zM176 465v545q-3 -70 -21 -252.5t-26 -292.5h47z" />
    <glyph glyph-name="five" unicode="5" horiz-adv-x="450" 
d="M201 743h-183v781h406v-174h-225v-281q48 74 120 74h9q51 0 79.5 -37t28.5 -92v-850q0 -77 -51 -125.5t-145 -48.5h-39q-96 0 -141.5 45.5t-45.5 116.5v483h187v-455q0 -22 18 -22q19 0 19 22v783q0 22 -19 22q-18 0 -18 -22v-220z" />
    <glyph glyph-name="six" unicode="6" horiz-adv-x="475" 
d="M342 954h10q53 0 82 -36t29 -93v-639q0 -89 -56 -142.5t-149 -53.5h-39q-99 0 -152 52t-53 144v1153q0 83 52 138t153 55h31q104 0 153.5 -52t49.5 -139v-346h-199v342q0 27 -18 27q-19 0 -19 -27v-456q16 20 27 31.5t39 26.5t59 15zM217 193q0 -29 21 -29q12 0 16 7
t4 22v579q0 17 -3.5 24t-14.5 7q-23 0 -23 -31v-579z" />
    <glyph glyph-name="seven" unicode="7" horiz-adv-x="419" 
d="M12 1524h398v-138q-3 -119 -11 -220.5t-24 -247.5t-25 -242q-26 -313 -26 -580v-96h-236v86q0 138 10 253.5t43 276.5q71 339 83 425q18 128 18 325h-58v-356h-172v514z" />
    <glyph glyph-name="eight" unicode="8" horiz-adv-x="473" 
d="M453 1354v-434q0 -79 -64 -119q70 -38 70 -121v-498q0 -96 -56 -144t-151 -48h-29q-209 0 -209 194v496q0 84 68 121q-62 36 -62 119v434q0 83 50 130.5t153 47.5h29q102 0 151.5 -48t49.5 -130zM256 889v452q0 27 -20 27q-19 0 -19 -27v-452q0 -27 21 -27q18 0 18 27z
M256 190v504q0 29 -20 29q-19 0 -19 -29v-504q0 -26 21 -26q18 0 18 26z" />
    <glyph glyph-name="nine" unicode="9" horiz-adv-x="475" 
d="M256 1331q0 29 -18 29q-21 0 -21 -29v-575q0 -31 19 -31q20 0 20 31v575zM139 573h-8q-57 0 -88 38.5t-31 101.5v620q0 88 50.5 143.5t148.5 55.5h43q99 0 153 -53t54 -146v-1149q0 -83 -52 -138.5t-153 -55.5h-35q-103 0 -150.5 50t-47.5 134v358h198v-348q0 -26 19 -26
q16 0 16 26v463q-17 -28 -48 -51t-69 -23z" />
    <glyph glyph-name="question" unicode="?" horiz-adv-x="434" 
d="M272 248h-147v311q0 61 7 95.5t30 90.5l49 121q18 46 18 127v357q0 15 -3.5 21.5t-14.5 6.5t-14.5 -6.5t-3.5 -21.5v-426h-181v424q0 184 185 184h34q191 0 191 -182v-332q0 -70 -9 -113t-38 -102l-64 -127q-24 -49 -31.5 -79.5t-7.5 -80.5v-268zM285 221v-221h-172v221
h172z" />
    <glyph glyph-name="A" unicode="A" horiz-adv-x="444" 
d="M238 483l-25 643l-25 -643h50zM256 0l-12 309h-64l-12 -309h-172l96 1524h254l103 -1524h-193z" />
    <glyph glyph-name="B" unicode="B" horiz-adv-x="473" 
d="M14 0v1524h301q134 0 134 -148v-432q0 -51 -25 -82t-53 -39q35 -10 63.5 -43t28.5 -96v-508q0 -86 -38 -131t-112 -45h-299zM229 1370h-14v-491h14q25 0 25 28v434q0 16 -5.5 22.5t-19.5 6.5zM233 729h-18v-571h18q15 0 19 6t4 24v508q0 18 -5 25.5t-18 7.5z" />
    <glyph glyph-name="C" unicode="C" horiz-adv-x="464" 
d="M238 164q20 0 20 33v514h195v-518q0 -89 -49 -146t-148 -57h-33q-109 0 -159 55.5t-50 163.5v1112q0 213 209 213h33q101 0 149 -51.5t48 -143.5v-469h-195v463q0 31 -20 31q-21 0 -21 -31v-1136q0 -33 21 -33z" />
    <glyph glyph-name="D" unicode="D" horiz-adv-x="466" 
d="M14 0v1524h285q71 0 112.5 -41t41.5 -129v-1176q0 -87 -41 -132.5t-109 -45.5h-289zM211 1360v-1192h18q25 0 25 39v1116q0 37 -25 37h-18z" />
    <glyph glyph-name="E" unicode="E" horiz-adv-x="362" 
d="M14 1524h334v-183h-137v-444h119v-188h-119v-525h141v-184h-338v1524z" />
    <glyph glyph-name="F" unicode="F" horiz-adv-x="354" 
d="M14 0v1524h330v-183h-135v-446h115l2 -186h-117v-709h-195z" />
    <glyph glyph-name="G" unicode="G" horiz-adv-x="473" 
d="M170 -10h-4q-73 0 -112.5 54.5t-39.5 137.5v1151q0 90 49 145.5t160 55.5h27q58 0 99 -15.5t63 -43t31.5 -59t9.5 -70.5v-406h-193v395q0 16 -4 23.5t-18 7.5q-21 0 -21 -31v-1142q0 -37 27 -37q28 0 28 37v542h-39v156h228v-891h-135q-2 24 -21 80q-59 -90 -135 -90z
" />
    <glyph glyph-name="H" unicode="H" horiz-adv-x="468" 
d="M14 0v1524h201v-623h41v623h199v-1524h-199v694h-41v-694h-201z" />
    <glyph glyph-name="I" unicode="I" horiz-adv-x="229" 
d="M215 1524v-1524h-201v1524h201z" />
    <glyph glyph-name="J" unicode="J" horiz-adv-x="444" 
d="M186 -10q-91 0 -132.5 47.5t-41.5 126.5v479h181v-461q0 -20 18 -20q16 0 16 20v1342h203v-1356q0 -80 -47.5 -129t-142.5 -49h-54z" />
    <glyph glyph-name="K" unicode="K" horiz-adv-x="479" 
d="M213 0h-197v1524h197l-2 -576l65 576h197l-96 -703l104 -821h-209l-61 614z" />
    <glyph glyph-name="L" unicode="L" horiz-adv-x="346" 
d="M14 1524h197l2 -1338h123v-186h-322v1524z" />
    <glyph glyph-name="M" unicode="M" horiz-adv-x="552" 
d="M16 0v1524h226l37 -776l36 776h222v-1524h-168v889l-60 -889h-69l-62 889v-889h-162z" />
    <glyph glyph-name="N" unicode="N" horiz-adv-x="471" 
d="M16 1524h203l78 -879l-4 879h164v-1524h-187l-94 979l2 -979h-162v1524z" />
    <glyph glyph-name="O" unicode="O" horiz-adv-x="481" 
d="M467 1303v-1086q0 -108 -55.5 -167.5t-155.5 -59.5h-29q-103 0 -158 59.5t-55 167.5v1086q0 110 52.5 170.5t160.5 60.5h29q107 0 159 -60.5t52 -170.5zM264 201v1122q0 35 -22 35q-13 0 -18 -8t-5 -27v-1122q0 -33 23 -33q22 0 22 33z" />
    <glyph glyph-name="P" unicode="P" horiz-adv-x="458" 
d="M307 657h-94v-657h-199v1524h291q65 0 103 -38t38 -116v-559q0 -74 -39 -114t-100 -40zM213 1368v-549h14q14 0 19.5 7t5.5 26v485q0 31 -25 31h-14z" />
    <glyph glyph-name="Q" unicode="Q" horiz-adv-x="481" 
d="M174 -229v223q-78 15 -119 72.5t-41 150.5v1086q0 110 52.5 170.5t160.5 60.5h29q107 0 159 -60.5t52 -170.5v-1086q0 -180 -143 -219l67 -227h-217zM264 201v1122q0 35 -22 35q-13 0 -18 -8t-5 -27v-1122q0 -33 23 -33q22 0 22 33z" />
    <glyph glyph-name="R" unicode="R" horiz-adv-x="466" 
d="M215 1370v-498h14q23 0 23 27v444q0 15 -4 21t-17 6h-16zM215 700v-700h-201v1524h312q55 0 89 -37t34 -105v-440q0 -95 -70 -127q29 -11 51.5 -39t22.5 -71v-650q0 -27 8 -51v-4h-195q-14 14 -14 49v625q0 26 -23 26h-14z" />
    <glyph glyph-name="S" unicode="S" horiz-adv-x="466" 
d="M207 -10q-197 0 -197 184v475h197v-461q0 -32 20 -32q23 0 23 32v396q0 31 -6.5 47.5t-28.5 38.5l-109 106q-48 45 -69 98t-21 125v347q0 188 199 188h45q189 0 189 -172v-410h-191v402q0 24 -20 24q-21 0 -21 -24v-346q0 -29 6 -43t25 -35l106 -107q59 -53 81 -102.5
t22 -128.5v-393q0 -99 -51.5 -154t-153.5 -55h-45z" />
    <glyph glyph-name="T" unicode="T" horiz-adv-x="395" 
d="M98 0v1341h-88v183h375v-183h-90v-1341h-197z" />
    <glyph glyph-name="U" unicode="U" horiz-adv-x="477" 
d="M254 -10h-31q-109 0 -159 53.5t-50 138.5v1342h203v-1319q0 -31 21 -31q22 0 22 31v1319h203v-1342q0 -83 -53.5 -137.5t-155.5 -54.5z" />
    <glyph glyph-name="V" unicode="V" horiz-adv-x="483" 
d="M113 0l-115 1524h213l41 -1104l39 1104h194l-106 -1524h-266z" />
    <glyph glyph-name="W" unicode="W" horiz-adv-x="698" 
d="M326 0h-234l-94 1524h207l20 -1065l37 1065h187l36 -1043l23 1043h192l-94 -1524h-227l-27 899z" />
    <glyph glyph-name="X" unicode="X" horiz-adv-x="460" 
d="M195 0h-197l78 795l-72 729h203l26 -600l29 600h189l-70 -729l82 -795h-199l-37 643z" />
    <glyph glyph-name="Y" unicode="Y" horiz-adv-x="436" 
d="M123 0v618l-127 906h197l34 -572l35 572h178l-118 -906v-618h-199z" />
    <glyph glyph-name="Z" unicode="Z" horiz-adv-x="399" 
d="M16 1524h365v-164l-162 -1180h170v-180h-379v164l160 1179h-154v181z" />
    <glyph glyph-name="a" unicode="a" horiz-adv-x="440" 
d="M227 154v424q-21 -13 -26.5 -25t-5.5 -35v-366q0 -23 16 -23t16 25zM10 109v401q0 52 18 82.5t60 52.5q59 29 125 55q14 7 14 25v238q0 22 -16 22h-2q-16 0 -16 -22v-256h-179v260q0 147 185 147h20q96 0 146.5 -33.5t50.5 -113.5v-799q0 -8 8 -8h14v-160h-162
q-47 0 -47 76q-16 -33 -47 -58.5t-71 -25.5h-5q-46 0 -71 35t-25 82z" />
    <glyph glyph-name="b" unicode="b" 
d="M12 1524h195v-498q54 82 125 82h6q49 0 75.5 -37.5t26.5 -95.5v-844q0 -56 -32.5 -98.5t-83.5 -42.5h-5q-76 0 -131 92q-6 -31 -10 -82h-166v1524zM225 131q19 0 19 25v788q0 25 -19 25q-18 0 -18 -27v-784q0 -27 18 -27z" />
    <glyph glyph-name="c" unicode="c" horiz-adv-x="425" 
d="M238 -12h-41q-84 0 -134.5 44t-50.5 132v772q0 80 44.5 129t140.5 49h47q88 0 130 -43.5t42 -116.5v-321h-178v321q0 23 -17 23q-16 0 -16 -23v-800q0 -23 16 -23q17 0 17 23v362h178v-366q0 -74 -48 -118t-130 -44z" />
    <glyph glyph-name="d" unicode="d" 
d="M227 131q19 0 19 29v780q0 29 -19 29q-20 0 -20 -27v-784q0 -27 20 -27zM246 1524h194v-1524h-194v72q-50 -82 -117 -82h-4q-51 0 -82 41.5t-31 103.5v838q0 59 29.5 97t75.5 38h6q40 0 68 -19.5t55 -54.5v490z" />
    <glyph glyph-name="e" unicode="e" horiz-adv-x="434" 
d="M201 958v-299h37v299q0 18 -3.5 24.5t-15.5 6.5q-18 0 -18 -31zM422 164q0 -83 -49.5 -129.5t-134.5 -46.5h-37q-90 0 -139.5 45t-49.5 137v758q0 88 48 137t141 49h37q83 0 133.5 -44t50.5 -138v-387h-221v-393q0 -27 18 -27q19 0 19 27v344h184v-332z" />
    <glyph glyph-name="f" unicode="f" horiz-adv-x="325" 
d="M319 1524v-158h-43q-16 0 -16 -20v-244h59v-164h-59v-938h-194v938h-60v164h60v317q0 51 29.5 78t72.5 27h151z" />
    <glyph glyph-name="g" unicode="g" 
d="M227 129q19 0 19 25v788q0 25 -19 25q-20 0 -20 -25v-788q0 -25 20 -25zM250 -334h-47q-96 0 -139.5 38t-43.5 101v170h189v-147q0 -23 18 -23q19 0 19 23v242q-47 -78 -121 -78q-49 0 -81 35.5t-32 97.5v850q0 56 28.5 94.5t78.5 38.5h6q63 0 121 -76v70h194v-1276
q0 -74 -48.5 -117t-141.5 -43z" />
    <glyph glyph-name="h" unicode="h" 
d="M12 0v1524h195v-496q50 82 125 82h8q53 0 76.5 -34.5t23.5 -76.5v-999h-194v938q0 25 -21 25q-18 0 -18 -27v-936h-195z" />
    <glyph glyph-name="i" unicode="i" horiz-adv-x="219" 
d="M207 1329v-205h-195v205h195zM207 1102v-1102h-195v1102h195z" />
    <glyph glyph-name="j" unicode="j" horiz-adv-x="219" 
d="M207 1329v-205h-195v205h195zM-43 -156h39q16 0 16 19v1239h195v-1333q0 -45 -24.5 -70t-61.5 -25h-164v170z" />
    <glyph glyph-name="k" unicode="k" horiz-adv-x="446" 
d="M207 0h-195v1524h195v-566l-2 -233l49 377h184l-71 -471l84 -631h-193l-53 481z" />
    <glyph glyph-name="l" unicode="l" horiz-adv-x="219" 
d="M207 1524v-1524h-195v1524h195z" />
    <glyph glyph-name="m" unicode="m" horiz-adv-x="679" 
d="M207 0h-195v1102h193v-76q48 84 123 84h8q73 0 94 -80q54 80 129 80h8q51 0 76 -36t25 -77v-997h-197v938q0 25 -16 25q-19 0 -19 -25v-938h-194v938q0 25 -17 25q-18 0 -18 -25v-938z" />
    <glyph glyph-name="n" unicode="n" 
d="M12 0v1102h193v-76q55 84 127 84h8q37 0 61 -19.5t31.5 -43t7.5 -48.5v-999h-194v938q0 25 -21 25q-18 0 -18 -27v-936h-195z" />
    <glyph glyph-name="o" unicode="o" 
d="M211 -12q-101 0 -150 50.5t-49 154.5v716q0 102 51.5 153.5t147.5 51.5h31q198 0 198 -205v-716q0 -102 -52 -153.5t-148 -51.5h-29zM225 135q21 0 21 29v778q0 29 -21 29q-18 0 -18 -29v-778q0 -29 18 -29z" />
    <glyph glyph-name="p" unicode="p" 
d="M225 129q19 0 19 27v788q0 27 -19 27q-18 0 -18 -27v-788q0 -27 18 -27zM12 1102h193v-80q59 88 125 88h4q53 0 79.5 -38.5t26.5 -104.5v-838q0 -58 -31.5 -98.5t-80.5 -40.5h-2q-72 0 -119 78v-394h-195v1428z" />
    <glyph glyph-name="q" unicode="q" horiz-adv-x="450" 
d="M289 1102h149v-1428h-192v398q-54 -82 -119 -82h-4q-47 0 -79 41t-32 104v817q0 72 31.5 115t91.5 43h8q74 0 129 -88q13 35 17 80zM227 129q19 0 19 33v784q0 29 -21 29q-18 0 -18 -25v-794q0 -27 20 -27z" />
    <glyph glyph-name="r" unicode="r" horiz-adv-x="415" 
d="M207 944v-944h-195v1102h193v-78q15 30 43.5 57t66.5 27h11q39 0 59.5 -25t20.5 -63v-395h-170v319q0 19 -15 19q-14 0 -14 -19z" />
    <glyph glyph-name="s" unicode="s" horiz-adv-x="405" 
d="M174 -12q-166 0 -166 149v322h170v-316q0 -20 19 -20q16 0 16 20v269q0 26 -5.5 38.5t-25.5 32.5l-82 66q-53 43 -70.5 84t-17.5 104v226q0 151 172 151h43q162 0 162 -137v-270h-166v262q0 22 -16 22q-17 0 -17 -22v-221q0 -27 4.5 -37.5t22.5 -28.5l86 -68
q57 -50 75.5 -90t18.5 -106v-268q0 -78 -46.5 -120t-129.5 -42h-47z" />
    <glyph glyph-name="t" unicode="t" horiz-adv-x="323" 
d="M315 0h-182q-29 0 -48 19.5t-19 58.5v862h-60v162h60v346h194v-346h55v-162h-55v-756q0 -20 19 -20h36v-164z" />
    <glyph glyph-name="u" unicode="u" 
d="M440 1102v-1102h-190v76q-58 -82 -131 -82h-6q-50 0 -75.5 34.5t-25.5 75.5v998h197v-936q0 -27 18 -27q19 0 19 27v936h194z" />
    <glyph glyph-name="v" unicode="v" horiz-adv-x="428" 
d="M88 0l-90 1102h197l22 -797l23 797h190l-90 -1102h-252z" />
    <glyph glyph-name="w" unicode="w" horiz-adv-x="649" 
d="M303 0h-217l-88 1102h195l18 -768l27 768h176l30 -774l17 774h190l-90 -1102h-213l-22 707z" />
    <glyph glyph-name="x" unicode="x" horiz-adv-x="421" 
d="M182 0h-184l76 586l-74 516h188l25 -385l20 385h187l-74 -512l78 -590h-191l-24 420z" />
    <glyph glyph-name="y" unicode="y" horiz-adv-x="421" 
d="M47 -326v160h57q17 0 17 19q0 4 1 28t1 35q0 27 -6 82l-119 1104h190l31 -692l19 692h188l-133 -1344q-13 -84 -88 -84h-158z" />
    <glyph glyph-name="z" unicode="z" horiz-adv-x="348" 
d="M10 1102h326v-139l-127 -801h131v-162h-334v139l131 807h-127v156z" />
    <glyph glyph-name="quoteleft" unicode="&#x2018;" horiz-adv-x="180" 
d="M47 1524h90q-25 -73 -28 -131h59v-189h-156v152q0 80 35 168z" />
    <glyph glyph-name="quoteright" unicode="&#x2019;" horiz-adv-x="180" 
d="M135 1204h-92q29 89 29 131h-60v189h156v-152q0 -86 -33 -168z" />
    <glyph glyph-name="quotedblleft" unicode="&#x201c;" horiz-adv-x="354" 
d="M221 1524h90q-26 -76 -26 -131h57v-189h-156v152q0 80 35 168zM47 1524h90q-25 -73 -28 -131h59v-189h-156v152q0 80 35 168z" />
    <glyph glyph-name="quotedblright" unicode="&#x201d;" horiz-adv-x="354" 
d="M309 1204h-92q29 89 29 131h-60v189h156v-152q0 -86 -33 -168zM135 1204h-92q29 89 29 131h-60v189h156v-152q0 -86 -33 -168z" />
    </font>
</defs>
</svg>
